<svg width="474" height="474" viewBox="0 0 474 474" fill="none" xmlns="http://www.w3.org/2000/svg">
<path d="M241.544 116.391L244.33 122L250.423 122.876L245.983 127.258L247.028 133.393L241.544 130.501L236.06 133.393L237.105 127.258L232.666 122.876L238.846 122L241.544 116.391Z" fill="#00DE9B"/>
<path d="M130.997 99.7393L133.782 105.348L139.875 106.224L135.436 110.606L136.481 116.741L130.997 113.849L125.513 116.741L126.557 110.606L122.118 106.224L128.298 105.348L130.997 99.7393Z" fill="#00DE9B"/>
<path d="M151.017 238.208L153.803 243.817L159.896 244.693L155.456 249.075L156.501 255.21L151.017 252.318L145.533 255.21L146.578 249.075L142.138 244.693L148.319 243.817L151.017 238.208Z" fill="#00DE9B"/>
<path d="M338.164 218.051L340.95 223.66L347.043 224.536L342.604 228.918L343.648 235.053L338.164 232.161L332.68 235.053L333.725 228.918L329.286 224.536L335.466 223.66L338.164 218.051Z" fill="#00DE9B"/>
<path d="M287.504 220.68L289.689 225.017L294.468 225.695L290.986 229.083L291.805 233.826L287.504 231.59L283.203 233.826L284.022 229.083L280.54 225.695L285.388 225.017L287.504 220.68Z" fill="#00DE9B"/>
<path d="M237.192 230.321L239.977 235.93L246.07 236.806L241.631 241.188L242.676 247.323L237.192 244.431L231.708 247.323L232.753 241.188L228.313 236.806L234.493 235.93L237.192 230.321Z" fill="#00DE9B"/>
<path d="M352.353 128.66L354.128 132.13L358.011 132.672L355.182 135.382L355.847 139.177L352.353 137.388L348.858 139.177L349.524 135.382L346.695 132.672L350.633 132.13L352.353 128.66Z" fill="#00DE9B"/>
<path d="M313.792 93.6042L316.577 99.2131L322.67 100.089L318.231 104.471L319.276 110.606L313.792 107.714L308.308 110.606L309.352 104.471L304.913 100.089L311.093 99.2131L313.792 93.6042Z" fill="#00DE9B"/>
<path d="M144.053 162.839L146.839 168.448L152.932 169.324L148.493 173.706L149.537 179.841L144.053 176.949L138.57 179.841L139.614 173.706L135.175 169.324L141.355 168.448L144.053 162.839Z" fill="#00DE9B"/>
<path d="M204.985 143.559L207.77 149.168L213.863 150.044L209.424 154.426L210.469 160.561L204.985 157.669L199.501 160.561L200.546 154.426L196.106 150.044L202.286 149.168L204.985 143.559Z" fill="#00DE9B"/>
<path d="M273.751 138.3L276.536 143.909L282.63 144.786L278.19 149.167L279.235 155.302L273.751 152.41L268.267 155.302L269.312 149.167L264.872 144.786L271.053 143.909L273.751 138.3Z" fill="#00DE9B"/>
<path d="M290.289 262.747L293.075 268.356L299.168 269.232L294.729 273.614L295.773 279.749L290.289 276.857L284.806 279.749L285.85 273.614L281.411 269.232L287.591 268.356L290.289 262.747Z" fill="#00DE9B"/>
<path d="M253.73 312.7L256.516 318.309L262.609 319.186L258.169 323.568L259.214 329.702L253.73 326.81L248.246 329.702L249.291 323.568L244.852 319.186L251.032 318.309L253.73 312.7Z" fill="#00DE9B"/>
<path d="M194.54 289.038L197.325 294.646L203.419 295.523L198.979 299.905L200.024 306.039L194.54 303.147L189.056 306.039L190.101 299.905L185.661 295.523L191.842 294.646L194.54 289.038Z" fill="#00DE9B"/>
<path d="M243.111 158.457L248.846 170.6L261.39 172.497L252.251 181.984L254.401 195.265L243.111 189.004L231.821 195.265L233.971 181.984L224.831 172.497L237.555 170.6L243.111 158.457Z" fill="#00DE9B"/>
<path d="M95.5691 139.176L98.1634 144.38L103.838 145.193L99.7037 149.259L100.677 154.951L95.5691 152.268L90.4616 154.951L91.4345 149.259L87.2998 145.193L93.0559 144.38L95.5691 139.176Z" fill="#00DE9B"/>
<path d="M102.272 72.572L105.057 78.1809L111.15 79.0572L106.711 83.4391L107.756 89.5738L102.272 86.6818L96.7878 89.5738L97.8324 83.4391L93.3931 79.0572L99.5733 78.1809L102.272 72.572Z" fill="#00DE9B"/>
<path d="M141.442 55.0449L144.227 60.6538L150.32 61.5301L145.881 65.912L146.926 72.0467L141.442 69.1546L135.958 72.0467L137.003 65.912L132.563 61.5301L138.743 60.6538L141.442 55.0449Z" fill="#00DE9B"/>
<path d="M309.7 59.4263L311.748 63.763L316.229 64.4406L312.964 67.8287L313.733 72.572L309.7 70.3358L305.668 72.572L306.436 67.8287L303.172 64.4406L307.716 63.763L309.7 59.4263Z" fill="#00DE9B"/>
<path d="M356.444 107.626L359.229 113.235L365.322 114.112L360.883 118.494L361.927 124.628L356.444 121.736L350.96 124.628L352.004 118.494L347.565 114.112L353.745 113.235L356.444 107.626Z" fill="#00DE9B"/>
<path d="M377.16 63.8074L379.345 68.1441L384.124 68.8217L380.642 72.2098L381.461 76.9531L377.16 74.717L372.859 76.9531L373.679 72.2098L370.197 68.8217L375.044 68.1441L377.16 63.8074Z" fill="#00DE9B"/>
<path d="M378.205 163.715L380.99 169.324L387.084 170.2L382.644 174.582L383.689 180.717L378.205 177.825L372.721 180.717L373.766 174.582L369.326 170.2L375.507 169.324L378.205 163.715Z" fill="#00DE9B"/>
<path d="M199.589 216.096C189.042 224.139 174.615 218.729 169.96 209.383C165.419 201.079 167.259 188.898 176.253 182.996C174.989 185.108 173.523 187.828 173.179 189.506C173.121 189.766 173.064 189.998 173.035 190.258C170.736 200.037 177.69 214.938 191.341 216.819C191.916 216.906 192.806 216.993 193.496 216.993C195.134 217.021 197.491 216.645 199.589 216.096Z" fill="#00DE9B"/>
<path d="M199.588 216.096C197.749 218.96 195.249 221.362 192.548 222.982C186.426 226.772 178.581 227.206 171.856 223.937C171.77 223.908 171.713 223.85 171.626 223.821C171.368 223.705 171.138 223.561 170.879 223.445C170.793 223.416 170.707 223.358 170.649 223.3C170.333 223.126 170.046 222.953 169.73 222.75C169.672 222.721 169.586 222.664 169.529 222.635C169.471 222.606 169.414 222.577 169.385 222.519C169.299 222.461 169.241 222.432 169.155 222.374C168.925 222.23 168.724 222.085 168.523 221.94C168.494 221.911 168.494 221.911 168.465 221.911C168.408 221.853 168.322 221.824 168.264 221.767C168.207 221.709 168.12 221.68 168.063 221.622C167.747 221.39 167.459 221.159 167.172 220.899C167.115 220.841 167.057 220.812 167 220.754C162.833 217.166 160.16 211.582 159.729 207.097C159.729 207.068 159.729 207.039 159.729 207.039C158.838 200.269 161.223 192.891 167 187.799L167.028 187.77C168.494 186.526 170.046 185.426 171.856 184.558C173.063 183.95 174.788 183.372 175.765 183.111C175.908 183.082 176.081 183.025 176.225 182.996C164.442 191.328 164.787 209.412 177.202 216.935C177.23 216.964 177.288 216.993 177.317 217.022C177.518 217.137 177.719 217.253 177.92 217.369C185.766 221.419 193.783 220.32 199.588 216.096Z" fill="#00B47E"/>
<path d="M228.313 273.878C234.484 269.171 242.926 272.337 245.65 277.805C248.307 282.664 247.23 289.792 241.967 293.246C242.707 292.01 243.565 290.418 243.766 289.436C243.8 289.284 243.834 289.149 243.85 288.996C245.196 283.274 241.126 274.555 233.139 273.454C232.803 273.404 232.281 273.353 231.878 273.353C230.919 273.336 229.541 273.556 228.313 273.878Z" fill="#00DE9B"/>
<path d="M228.313 273.878C229.389 272.202 230.852 270.796 232.433 269.848C236.014 267.631 240.605 267.377 244.54 269.29C244.59 269.307 244.624 269.34 244.674 269.357C244.826 269.425 244.96 269.51 245.112 269.577C245.162 269.594 245.213 269.628 245.246 269.662C245.431 269.764 245.599 269.865 245.784 269.984C245.818 270.001 245.868 270.035 245.902 270.052C245.936 270.068 245.969 270.085 245.986 270.119C246.036 270.153 246.07 270.17 246.121 270.204C246.255 270.289 246.373 270.373 246.491 270.458C246.507 270.475 246.507 270.475 246.524 270.475C246.558 270.509 246.608 270.526 246.642 270.559C246.675 270.593 246.726 270.61 246.76 270.644C246.945 270.78 247.113 270.915 247.281 271.067C247.314 271.101 247.348 271.118 247.382 271.152C249.82 273.251 251.384 276.519 251.636 279.143C251.636 279.16 251.636 279.177 251.636 279.177C252.157 283.138 250.762 287.456 247.382 290.435L247.365 290.452C246.507 291.18 245.599 291.823 244.54 292.331C243.834 292.687 242.825 293.026 242.253 293.178C242.169 293.195 242.068 293.229 241.984 293.246C248.878 288.37 248.677 277.789 241.412 273.387C241.395 273.37 241.362 273.353 241.345 273.336C241.227 273.268 241.11 273.201 240.992 273.133C236.401 270.763 231.71 271.406 228.313 273.878Z" fill="#00B47E"/>
<path d="M174.345 112.478C179.847 108.282 187.374 111.105 189.803 115.98C192.172 120.313 191.213 126.668 186.52 129.748C187.179 128.646 187.944 127.227 188.124 126.351C188.154 126.215 188.184 126.095 188.199 125.959C189.398 120.856 185.77 113.082 178.648 112.101C178.348 112.056 177.883 112.01 177.523 112.01C176.669 111.995 175.439 112.191 174.345 112.478Z" fill="#00DE9B"/>
<path d="M174.345 112.478C175.305 110.984 176.609 109.731 178.018 108.885C181.212 106.908 185.305 106.681 188.814 108.387C188.859 108.402 188.889 108.433 188.934 108.448C189.069 108.508 189.189 108.584 189.324 108.644C189.369 108.659 189.414 108.689 189.444 108.719C189.609 108.81 189.758 108.901 189.923 109.006C189.953 109.021 189.998 109.052 190.028 109.067C190.058 109.082 190.088 109.097 190.103 109.127C190.148 109.157 190.178 109.172 190.223 109.202C190.343 109.278 190.448 109.353 190.553 109.429C190.568 109.444 190.568 109.444 190.583 109.444C190.613 109.474 190.658 109.489 190.688 109.519C190.718 109.55 190.763 109.565 190.793 109.595C190.958 109.716 191.108 109.836 191.258 109.972C191.288 110.003 191.318 110.018 191.348 110.048C193.522 111.92 194.916 114.833 195.141 117.173C195.141 117.188 195.141 117.203 195.141 117.203C195.606 120.736 194.362 124.585 191.348 127.242L191.333 127.257C190.568 127.906 189.758 128.48 188.814 128.933C188.184 129.25 187.285 129.552 186.775 129.687C186.7 129.703 186.61 129.733 186.535 129.748C192.682 125.4 192.502 115.965 186.025 112.04C186.01 112.025 185.98 112.01 185.965 111.995C185.86 111.935 185.755 111.874 185.65 111.814C181.557 109.701 177.374 110.274 174.345 112.478Z" fill="#00B47E"/>
<path d="M59.4451 106.714C68.6163 99.7196 81.161 104.424 85.2093 112.551C89.1576 119.772 87.5583 130.364 79.7366 135.497C80.8361 133.66 82.1106 131.295 82.4104 129.836C82.4604 129.609 82.5104 129.408 82.5354 129.182C84.5345 120.678 78.4871 107.72 66.6171 106.085C66.1173 106.01 65.3426 105.934 64.7429 105.934C63.3185 105.909 61.2694 106.236 59.4451 106.714Z" fill="#00DE9B"/>
<path d="M59.4453 106.714C61.0447 104.223 63.2187 102.135 65.5677 100.726C70.8905 97.4301 77.7126 97.0527 83.5601 99.8957C83.6351 99.9209 83.6851 99.9712 83.7601 99.9963C83.985 100.097 84.1849 100.223 84.4098 100.323C84.4848 100.349 84.5597 100.399 84.6097 100.449C84.8846 100.6 85.1345 100.751 85.4094 100.927C85.4593 100.952 85.5343 101.003 85.5843 101.028C85.6343 101.053 85.6842 101.078 85.7092 101.129C85.7842 101.179 85.8342 101.204 85.9092 101.254C86.1091 101.38 86.284 101.506 86.4589 101.632C86.4839 101.657 86.4839 101.657 86.5089 101.657C86.5589 101.707 86.6338 101.732 86.6838 101.783C86.7338 101.833 86.8088 101.858 86.8587 101.908C87.1336 102.11 87.3835 102.311 87.6334 102.537C87.6834 102.588 87.7334 102.613 87.7834 102.663C91.4068 105.783 93.7308 110.639 94.1057 114.539C94.1057 114.564 94.1057 114.589 94.1057 114.589C94.8804 120.476 92.8062 126.892 87.7834 131.32L87.7584 131.345C86.4839 132.427 85.1345 133.383 83.5601 134.138C82.5106 134.666 81.0112 135.17 80.1616 135.396C80.0366 135.421 79.8867 135.471 79.7617 135.497C90.0074 128.251 89.7075 112.526 78.9121 105.984C78.8871 105.959 78.8371 105.934 78.8121 105.909C78.6372 105.808 78.4623 105.708 78.2874 105.607C71.4653 102.085 64.4932 103.041 59.4453 106.714Z" fill="#00B47E"/>
<path d="M334.508 270.496C325.337 277.491 312.793 272.786 308.744 264.659C304.796 257.438 306.395 246.846 314.217 241.714C313.118 243.55 311.843 245.915 311.543 247.375C311.493 247.601 311.443 247.802 311.418 248.029C309.419 256.533 315.467 269.49 327.336 271.125C327.836 271.201 328.611 271.276 329.211 271.276C330.635 271.301 332.684 270.974 334.508 270.496Z" fill="#00DE9B"/>
<path d="M334.508 270.496C332.909 272.987 330.735 275.075 328.386 276.484C323.063 279.78 316.241 280.158 310.394 277.315C310.319 277.289 310.269 277.239 310.194 277.214C309.969 277.113 309.769 276.987 309.544 276.887C309.469 276.862 309.394 276.811 309.344 276.761C309.069 276.61 308.819 276.459 308.544 276.283C308.495 276.258 308.42 276.207 308.37 276.182C308.32 276.157 308.27 276.132 308.245 276.082C308.17 276.031 308.12 276.006 308.045 275.956C307.845 275.83 307.67 275.704 307.495 275.579C307.47 275.553 307.47 275.553 307.445 275.553C307.395 275.503 307.32 275.478 307.27 275.428C307.22 275.377 307.145 275.352 307.095 275.302C306.82 275.1 306.57 274.899 306.32 274.673C306.27 274.622 306.22 274.597 306.17 274.547C302.547 271.427 300.223 266.571 299.848 262.672C299.848 262.646 299.848 262.621 299.848 262.621C299.073 256.734 301.148 250.318 306.17 245.89L306.195 245.865C307.47 244.783 308.819 243.827 310.394 243.072C311.443 242.544 312.943 242.041 313.792 241.814C313.917 241.789 314.067 241.739 314.192 241.714C303.946 248.96 304.246 264.684 315.042 271.226C315.067 271.251 315.117 271.276 315.142 271.301C315.317 271.402 315.492 271.503 315.666 271.603C322.489 275.126 329.461 274.17 334.508 270.496Z" fill="#00B47E"/>
<path d="M324.933 204.729C330.462 208.945 338.024 206.109 340.464 201.21C342.844 196.857 341.88 190.472 337.165 187.378C337.828 188.485 338.596 189.911 338.777 190.79C338.807 190.927 338.837 191.048 338.852 191.185C340.058 196.311 336.412 204.122 329.257 205.108C328.955 205.153 328.488 205.199 328.127 205.199C327.268 205.214 326.033 205.017 324.933 204.729Z" fill="#00DE9B"/>
<path d="M324.933 204.729C325.898 206.23 327.208 207.489 328.624 208.338C331.833 210.325 335.945 210.552 339.47 208.839C339.515 208.823 339.546 208.793 339.591 208.778C339.726 208.717 339.847 208.641 339.982 208.581C340.028 208.566 340.073 208.535 340.103 208.505C340.269 208.414 340.419 208.323 340.585 208.217C340.615 208.202 340.66 208.171 340.69 208.156C340.721 208.141 340.751 208.126 340.766 208.095C340.811 208.065 340.841 208.05 340.886 208.02C341.007 207.944 341.112 207.868 341.218 207.792C341.233 207.777 341.233 207.777 341.248 207.777C341.278 207.747 341.323 207.731 341.353 207.701C341.383 207.671 341.429 207.656 341.459 207.625C341.624 207.504 341.775 207.383 341.926 207.246C341.956 207.216 341.986 207.201 342.016 207.17C344.2 205.29 345.601 202.363 345.827 200.012C345.827 199.997 345.827 199.981 345.827 199.981C346.294 196.432 345.044 192.565 342.016 189.896L342.001 189.88C341.233 189.228 340.419 188.652 339.47 188.197C338.838 187.878 337.934 187.575 337.422 187.439C337.346 187.423 337.256 187.393 337.181 187.378C343.357 191.746 343.176 201.225 336.668 205.168C336.653 205.184 336.623 205.199 336.608 205.214C336.503 205.275 336.397 205.335 336.292 205.396C332.179 207.519 327.976 206.943 324.933 204.729Z" fill="#00B47E"/>
<path d="M249.204 100.92C255.165 105.467 263.319 102.409 265.951 97.1263C268.517 92.4328 267.478 85.5478 262.394 82.2117C263.108 83.4055 263.937 84.9427 264.132 85.8913C264.164 86.0385 264.196 86.1693 264.213 86.3165C265.512 91.844 261.581 100.266 253.866 101.329C253.541 101.378 253.037 101.427 252.648 101.427C251.722 101.444 250.39 101.231 249.204 100.92Z" fill="#00DE9B"/>
<path d="M249.204 100.92C250.244 102.539 251.657 103.897 253.184 104.813C256.644 106.955 261.078 107.2 264.879 105.352C264.928 105.336 264.96 105.303 265.009 105.287C265.155 105.221 265.285 105.14 265.431 105.074C265.48 105.058 265.529 105.025 265.561 104.992C265.74 104.894 265.902 104.796 266.081 104.682C266.113 104.665 266.162 104.633 266.195 104.616C266.227 104.6 266.259 104.584 266.276 104.551C266.324 104.518 266.357 104.502 266.406 104.469C266.536 104.387 266.649 104.306 266.763 104.224C266.779 104.207 266.779 104.207 266.796 104.207C266.828 104.175 266.877 104.158 266.909 104.126C266.942 104.093 266.99 104.077 267.023 104.044C267.202 103.913 267.364 103.782 267.526 103.635C267.559 103.602 267.591 103.586 267.624 103.553C269.979 101.525 271.49 98.3692 271.733 95.8344C271.733 95.818 271.733 95.8017 271.733 95.8017C272.237 91.9749 270.889 87.8047 267.624 84.9264L267.608 84.91C266.779 84.2068 265.902 83.5854 264.879 83.0948C264.197 82.7513 263.222 82.4243 262.67 82.2771C262.589 82.2607 262.491 82.228 262.41 82.2117C269.07 86.9216 268.875 97.1427 261.858 101.395C261.841 101.411 261.809 101.427 261.793 101.444C261.679 101.509 261.565 101.575 261.452 101.64C257.017 103.929 252.485 103.308 249.204 100.92Z" fill="#00B47E"/>
<path d="M399.792 150.09C392.685 155.511 382.963 151.865 379.825 145.567C376.765 139.97 378.005 131.761 384.066 127.784C383.214 129.207 382.227 131.04 381.994 132.171C381.955 132.346 381.917 132.502 381.897 132.678C380.348 139.268 385.035 149.31 394.234 150.578C394.621 150.636 395.222 150.695 395.687 150.695C396.79 150.714 398.379 150.461 399.792 150.09Z" fill="#00DE9B"/>
<path d="M399.792 150.09C398.553 152.021 396.868 153.639 395.047 154.731C390.922 157.285 385.635 157.578 381.103 155.374C381.045 155.355 381.006 155.316 380.948 155.296C380.774 155.218 380.619 155.121 380.445 155.043C380.387 155.023 380.328 154.984 380.29 154.945C380.077 154.828 379.883 154.711 379.67 154.575C379.631 154.555 379.573 154.516 379.534 154.497C379.496 154.477 379.457 154.458 379.438 154.419C379.38 154.38 379.341 154.36 379.283 154.321C379.128 154.224 378.992 154.126 378.857 154.029C378.837 154.009 378.837 154.009 378.818 154.009C378.779 153.97 378.721 153.951 378.682 153.912C378.644 153.873 378.585 153.853 378.547 153.814C378.334 153.658 378.14 153.502 377.946 153.327C377.908 153.288 377.869 153.268 377.83 153.23C375.022 150.812 373.221 147.048 372.93 144.026C372.93 144.007 372.93 143.987 372.93 143.987C372.33 139.424 373.937 134.452 377.83 131.02L377.85 131.001C378.837 130.163 379.883 129.422 381.103 128.837C381.917 128.427 383.079 128.037 383.737 127.862C383.834 127.842 383.95 127.803 384.047 127.784C376.107 133.399 376.339 145.586 384.705 150.656C384.725 150.675 384.763 150.695 384.783 150.714C384.918 150.792 385.054 150.87 385.19 150.948C390.477 153.678 395.88 152.937 399.792 150.09Z" fill="#00B47E"/>
<path d="M175.445 132.505C169.09 131.365 164.564 125.494 167.349 122.865C169.961 120.323 173.094 123.653 173.094 123.653C173.094 123.653 173.878 119.271 177.447 119.972C181.016 120.761 180.841 128.473 175.445 132.505Z" fill="#008D63"/>
<path d="M236.764 318.223C228.582 312.263 226.319 300.958 231.976 299.205C237.373 297.54 239.462 304.288 239.462 304.288C239.462 304.288 243.466 298.68 247.993 302.185C252.606 305.603 247.035 316.382 236.764 318.223Z" fill="#008D63"/>
<path d="M68.9413 186.591C63.1963 182.384 61.5424 174.322 65.5465 173.095C69.3765 171.868 70.8563 176.688 70.8563 176.688C70.8563 176.688 73.7288 172.744 76.9494 175.198C80.1701 177.652 76.2531 185.276 68.9413 186.591Z" fill="#008D63"/>
<path d="M105.562 115.289C113.048 114.588 118.793 108.278 115.834 104.948C112.961 101.793 109.044 105.298 109.044 105.298C109.044 105.298 108.609 100.127 104.344 100.653C100.253 101.179 99.7304 110.206 105.562 115.289Z" fill="#00B47E"/>
<path d="M67.3738 84.6669C58.8434 76.8671 57.5377 63.809 64.1532 62.4945C70.5075 61.1799 72.0743 69.155 72.0743 69.155C72.0743 69.155 77.297 63.2832 82.0845 67.7528C86.7849 72.3099 79.212 83.7905 67.3738 84.6669Z" fill="#00DE9B"/>
<path d="M385.672 209.011C375.488 200.773 373.225 186.05 380.711 184.122C387.849 182.282 390.112 191.221 390.112 191.221C390.112 191.221 395.683 184.21 401.253 189.03C406.911 193.762 398.99 207.346 385.672 209.011Z" fill="#008D63"/>
<path d="M364.982 194.039C351.925 194.74 340.435 185.363 344.7 178.878C348.791 172.743 356.364 177.739 356.364 177.739C356.364 177.739 355.842 168.8 363.241 168.537C370.553 168.449 373.686 183.786 364.982 194.039Z" fill="#008D63"/>
<path d="M108.634 62.0569C101.322 59.7783 96.8824 52.3291 100.538 49.6123C104.02 47.0708 107.154 51.3651 107.154 51.3651C107.154 51.3651 108.634 46.3697 112.725 47.6843C116.816 49.0865 115.51 58.2008 108.634 62.0569Z" fill="#00DE9B"/>
<path d="M96.7952 53.1172C91.1373 53.4678 86.1757 49.4364 88.0037 46.632C89.7446 43.9152 93.0523 46.1062 93.0523 46.1062C93.0523 46.1062 92.7912 42.2501 96.0118 42.0748C99.1455 41.9872 100.538 48.6477 96.7952 53.1172Z" fill="#008D63"/>
<path d="M84.4348 47.334C80.1695 47.6846 76.4266 44.7049 77.7323 42.6016C79.0379 40.5859 81.4752 42.1634 81.4752 42.1634C81.4752 42.1634 81.2141 39.2713 83.6513 39.096C86.0016 38.9208 87.1332 43.9161 84.4348 47.334Z" fill="#00DE9B"/>
<path d="M76.1656 59.1642C71.9004 59.3395 68.2445 56.2722 69.6372 54.1689C70.9429 52.1532 73.4672 53.8183 73.4672 53.8183C73.4672 53.8183 73.2931 50.9263 75.7304 50.8386C77.9935 50.8386 79.0381 55.834 76.1656 59.1642Z" fill="#00B47E"/>
<path d="M321.779 222.524C316.295 223.05 311.421 219.194 313.075 216.477C314.729 213.848 317.949 215.864 317.949 215.864C317.949 215.864 317.601 212.096 320.735 211.92C323.781 211.745 325.348 218.143 321.779 222.524Z" fill="#00B47E"/>
<path d="M316.557 206.749C311.073 207.275 306.198 203.419 307.852 200.702C309.506 198.073 312.727 200.089 312.727 200.089C312.727 200.089 312.378 196.32 315.512 196.145C318.559 195.97 320.126 202.367 316.557 206.749Z" fill="#00B47E"/>
<path d="M365.243 214.284C361.848 211.567 360.978 206.659 363.502 206.046C365.852 205.432 366.636 208.324 366.636 208.324C366.636 208.324 368.463 205.958 370.378 207.536C372.293 209.113 369.682 213.67 365.243 214.284Z" fill="#008D63"/>
<path d="M348.151 161.522C344.756 158.805 343.885 153.897 346.41 153.284C348.76 152.67 349.543 155.563 349.543 155.563C349.543 155.563 351.371 153.196 353.286 154.774C355.114 156.351 352.59 160.908 348.151 161.522Z" fill="#008D63"/>
<path d="M350.619 218.753C349.139 217.526 348.878 215.423 349.922 215.16C350.967 214.897 351.228 216.212 351.228 216.212C351.228 216.212 352.012 215.248 352.795 215.949C353.752 216.562 352.534 218.578 350.619 218.753Z" fill="#00B47E"/>
<path d="M373.425 199.999C371.597 199.736 370.204 198.071 370.988 197.282C371.771 196.494 372.641 197.458 372.641 197.458C372.641 197.458 372.816 196.143 373.86 196.318C374.905 196.581 374.992 198.772 373.425 199.999Z" fill="#008D63"/>
<path d="M351.751 206.397C349.401 204.118 349.227 200.349 351.142 199.999C352.97 199.736 353.318 202.015 353.318 202.015C353.318 202.015 354.885 200.437 356.19 201.752C357.409 203.066 355.146 206.309 351.751 206.397Z" fill="#008D63"/>
<path d="M69.202 46.8953C67.8093 45.6683 67.5481 43.565 68.5927 43.3021C69.6372 43.0392 69.8984 44.3538 69.8984 44.3538C69.8984 44.3538 70.7688 43.3897 71.5522 44.0908C72.3356 44.7919 71.117 46.72 69.202 46.8953Z" fill="#008D63"/>
<path d="M105.065 37.3433C103.237 37.0803 101.844 35.4152 102.627 34.6265C103.411 33.8377 104.281 34.8018 104.281 34.8018C104.281 34.8018 104.455 33.4872 105.5 33.7501C106.544 33.8377 106.544 36.1163 105.065 37.3433Z" fill="#008D63"/>
<path d="M126.826 50.4009C120.471 49.2616 115.945 43.3899 118.731 40.7608C121.342 38.2192 124.476 41.5495 124.476 41.5495C124.476 41.5495 125.259 37.1676 128.828 37.8687C132.397 38.6574 132.223 46.4572 126.826 50.4009Z" fill="#00DE9B"/>
<path d="M398.842 101.844C386.134 99.0395 377.603 86.8578 383.435 81.7748C389.006 76.9547 395.012 83.8781 395.012 83.8781C395.012 83.8781 396.927 75.1143 404.065 76.9547C411.115 78.6198 409.984 94.307 398.842 101.844Z" fill="#008D63"/>
<path d="M167.737 157.144C157.553 148.906 155.29 134.183 162.776 132.255C169.913 130.415 172.177 139.354 172.177 139.354C172.177 139.354 177.748 132.343 183.318 137.163C188.976 141.895 181.055 155.479 167.737 157.144Z" fill="#00DE9B"/>
<path d="M295.607 100.705C282.55 101.406 271.06 92.0292 275.325 85.544C279.416 79.4093 286.989 84.4047 286.989 84.4047C286.989 84.4047 286.467 75.4656 293.866 75.2027C301.177 75.0274 304.311 90.364 295.607 100.705Z" fill="#00B47E"/>
<path d="M343.307 73.0113C332.601 65.2115 329.641 50.4007 337.04 48.1221C344.178 45.9311 346.876 54.7826 346.876 54.7826C346.876 54.7826 352.186 47.421 358.105 51.9782C364.024 56.5353 356.712 70.6451 343.307 73.0113Z" fill="#00B47E"/>
<path d="M383.609 124.98C375.949 124.98 369.595 119.108 372.294 115.428C374.905 111.922 379.17 115.165 379.17 115.165C379.17 115.165 379.17 109.906 383.435 110.082C387.788 110.257 389.093 119.284 383.609 124.98Z" fill="#00DE9B"/>
<path d="M365.939 91.2403C355.842 92.292 346.528 85.2809 349.662 80.1103C352.621 75.2026 358.714 78.8834 358.714 78.8834C358.714 78.8834 358.018 71.9599 363.763 71.5218C369.421 71.0836 372.38 83.0023 365.939 91.2403Z" fill="#00DE9B"/>
<path d="M412.682 104.824C408.853 100.617 408.765 94.2195 412.073 93.7813C415.207 93.4308 415.642 97.3745 415.642 97.3745C415.642 97.3745 418.427 94.7453 420.604 97.1116C422.693 99.5654 418.515 104.911 412.682 104.824Z" fill="#00B47E"/>
<path d="M420.952 122.088C415.294 122.439 410.332 118.407 412.16 115.603C413.901 112.886 417.209 115.077 417.209 115.077C417.209 115.077 416.947 111.221 420.168 111.046C423.302 110.958 424.695 117.619 420.952 122.088Z" fill="#00DE9B"/>
<path d="M367.68 109.381C363.676 106.577 362.457 101.143 365.243 100.267C367.854 99.3906 368.899 102.633 368.899 102.633C368.899 102.633 370.814 99.9164 372.99 101.582C375.166 103.247 372.555 108.417 367.68 109.381Z" fill="#00B47E"/>
<path d="M406.937 114.815C402.672 115.166 398.929 112.186 400.235 110.083C401.541 108.067 403.978 109.645 403.978 109.645C403.978 109.645 403.717 106.753 406.154 106.577C408.591 106.402 409.723 111.398 406.937 114.815Z" fill="#00DE9B"/>
<path d="M363.415 137.425C359.933 134.972 358.976 130.152 361.413 129.45C363.676 128.749 364.547 131.554 364.547 131.554C364.547 131.554 366.201 129.187 368.116 130.677C370.031 132.08 367.68 136.637 363.415 137.425Z" fill="#00B47E"/>
<path d="M237.373 100.881C233.108 101.056 229.452 97.9885 230.845 95.8852C232.15 93.8695 234.675 95.5346 234.675 95.5346C234.675 95.5346 234.501 92.6426 236.938 92.5549C239.201 92.6426 240.246 97.6379 237.373 100.881Z" fill="#00B47E"/>
<path d="M250.082 84.3169C247.297 83.0024 245.991 79.8474 247.558 78.971C249.037 78.1823 250.082 80.0227 250.082 80.0227C250.082 80.0227 250.952 78.0946 252.519 78.8834C253.999 79.6721 252.954 83.1776 250.082 84.3169Z" fill="#00B47E"/>
<path d="M222.402 86.5077C219.442 86.9459 216.57 84.9302 217.44 83.3527C218.224 81.8629 220.139 82.9145 220.139 82.9145C220.139 82.9145 219.877 80.8112 221.531 80.636C223.272 80.4607 224.23 83.9662 222.402 86.5077Z" fill="#00B47E"/>
<path d="M409.897 143.122C406.328 140.843 405.11 136.11 407.46 135.234C409.723 134.358 410.768 137.162 410.768 137.162C410.768 137.162 412.334 134.708 414.337 136.023C416.252 137.425 414.162 142.07 409.897 143.122Z" fill="#00B47E"/>
<path d="M402.846 71.8721C397.363 72.3979 392.488 68.5418 394.142 65.825C395.796 63.1959 399.016 65.2116 399.016 65.2116C399.016 65.2116 398.668 61.4431 401.802 61.2679C404.848 61.0049 406.415 67.4025 402.846 71.8721Z" fill="#008D63"/>
<path d="M380.737 61.7059C377.952 58.3756 378.126 53.3803 380.65 53.2926C383.087 53.1174 383.261 56.1847 383.261 56.1847C383.261 56.1847 385.524 54.2567 387.091 56.1847C388.658 58.0251 385.263 61.9688 380.737 61.7059Z" fill="#00B47E"/>
<path d="M390.138 107.016C387.875 106.227 386.569 103.948 387.701 103.072C388.832 102.283 389.703 103.685 389.703 103.685C389.703 103.685 390.225 102.108 391.444 102.634C392.836 103.072 392.314 105.876 390.138 107.016Z" fill="#00B47E"/>
<path d="M412.508 78.0947C411.029 76.8678 410.768 74.7645 411.812 74.5016C412.857 74.2386 413.118 75.5532 413.118 75.5532C413.118 75.5532 413.901 74.5892 414.685 75.2903C415.555 75.9038 414.423 77.8318 412.508 78.0947Z" fill="#00B47E"/>
<path d="M347.311 31.9969C345.483 31.734 344.09 30.0689 344.874 29.2802C345.657 28.4914 346.528 29.4554 346.528 29.4554C346.528 29.4554 346.702 28.1409 347.746 28.3161C348.791 28.4914 348.878 30.77 347.311 31.9969Z" fill="#008D63"/>
<path d="M373.948 92.7302C371.945 90.9774 371.597 87.9977 373.077 87.6472C374.557 87.2966 374.905 89.137 374.905 89.137C374.905 89.137 376.124 87.7348 377.168 88.7865C378.387 89.7505 376.646 92.4673 373.948 92.7302Z" fill="#00B47E"/>
<path d="M342.517 92.5821C338.164 91.9686 334.944 88.1125 336.772 86.2721C338.513 84.5193 340.689 86.6227 340.689 86.6227C340.689 86.6227 341.124 83.643 343.561 83.9935C345.999 84.4317 346.086 89.7776 342.517 92.5821Z" fill="#008D63"/>
<path d="M392.575 117.094C390.486 115.253 390.138 112.186 391.704 111.836C393.184 111.485 393.619 113.413 393.619 113.413C393.619 113.413 394.838 112.011 395.97 113.063C397.101 114.114 395.36 116.831 392.575 117.094Z" fill="#008D63"/>
<path d="M420.255 132.255C418.166 130.414 417.818 127.347 419.385 126.996C420.865 126.646 421.3 128.574 421.3 128.574C421.3 128.574 422.518 127.172 423.65 128.223C424.782 129.275 423.041 131.992 420.255 132.255Z" fill="#008D63"/>
<path d="M364.634 146.979C363.241 145.752 362.98 143.649 364.025 143.386C365.069 143.123 365.33 144.437 365.33 144.437C365.33 144.437 366.201 143.473 366.984 144.174C367.767 144.875 366.549 146.804 364.634 146.979Z" fill="#008D63"/>
<path d="M366.222 65.6833C364.829 64.4564 364.568 62.3531 365.613 62.0902C366.657 61.8273 366.918 63.1418 366.918 63.1418C366.918 63.1418 367.789 62.1778 368.572 62.8789C369.356 63.58 368.137 65.5081 366.222 65.6833Z" fill="#008D63"/>
<path d="M405.393 123.524C404 122.297 403.739 120.194 404.783 119.931C405.828 119.668 406.089 120.983 406.089 120.983C406.089 120.983 406.959 120.019 407.743 120.72C408.526 121.509 407.308 123.349 405.393 123.524Z" fill="#008D63"/>
<path d="M214.829 108.154C212.13 106.577 210.999 103.159 212.739 102.37C214.393 101.669 215.264 103.685 215.264 103.685C215.264 103.685 216.308 101.844 217.875 102.721C219.268 103.685 217.875 107.19 214.829 108.154Z" fill="#008D63"/>
<path d="M243.032 91.5908C241.639 90.3639 241.378 88.2606 242.422 87.9977C243.467 87.7347 243.728 89.0493 243.728 89.0493C243.728 89.0493 244.598 88.0853 245.382 88.7864C246.165 89.5752 244.947 91.4156 243.032 91.5908Z" fill="#008D63"/>
<path d="M380.998 105.35C379.17 104.736 378.125 102.896 379.083 102.282C379.953 101.669 380.737 102.72 380.737 102.72C380.737 102.72 381.085 101.493 382.13 101.844C383.087 102.195 382.739 104.473 380.998 105.35Z" fill="#008D63"/>
<path d="M331.03 83.4705C327.897 81.893 326.504 78.1246 328.419 77.1605C330.16 76.2842 331.291 78.4751 331.291 78.4751C331.291 78.4751 332.423 76.3718 334.077 77.3358C335.731 78.2998 334.425 82.3312 331.03 83.4705Z" fill="#008D63"/>
<path d="M322.451 64.1103C325.897 63.4752 328.278 60.2473 326.706 58.7839C325.277 57.4535 323.584 59.2398 323.584 59.2398C323.584 59.2398 323.08 56.9022 321.224 57.3636C319.369 57.8251 319.506 62.0631 322.451 64.1103Z" fill="#008D63"/>
<path d="M320.265 89.5748C313.824 89.5748 308.34 84.5794 310.69 81.5121C312.867 78.5324 316.522 81.3368 316.522 81.3368C316.522 81.3368 316.522 76.8672 320.178 76.9549C323.834 77.0425 324.879 84.7547 320.265 89.5748Z" fill="#00DE9B"/>
<path d="M146.15 55.3961C135.443 47.5963 132.484 32.7854 139.882 30.5069C147.02 28.3159 149.719 37.1673 149.719 37.1673C149.719 37.1673 155.028 29.8058 160.947 34.3629C166.779 38.9201 159.468 52.9422 146.15 55.3961Z" fill="#00B47E"/>
<path d="M325.463 52.6799C317.803 52.6799 311.449 46.8081 314.147 43.1273C316.758 39.6218 321.024 42.8644 321.024 42.8644C321.024 42.8644 321.024 37.6061 325.289 37.7814C329.554 37.869 330.86 46.9834 325.463 52.6799Z" fill="#00DE9B"/>
<path d="M189.237 64.0724C181.577 64.0724 175.223 58.2007 177.922 54.5199C180.533 51.0144 184.798 54.257 184.798 54.257C184.798 54.257 184.798 48.9987 189.063 49.174C193.416 49.2616 194.721 58.376 189.237 64.0724Z" fill="#00DE9B"/>
<path d="M409.984 171.516C399.887 172.568 390.573 165.557 393.707 160.386C396.666 155.479 402.759 159.159 402.759 159.159C402.759 159.159 402.063 152.236 407.808 151.798C413.466 151.36 416.425 163.191 409.984 171.516Z" fill="#00DE9B"/>
<path d="M353.579 46.8955C349.314 47.2461 345.571 44.2664 346.876 42.1631C348.182 40.1474 350.619 41.7249 350.619 41.7249C350.619 41.7249 350.358 38.8328 352.795 38.6576C355.146 38.4823 356.277 43.4777 353.579 46.8955Z" fill="#00DE9B"/>
<path d="M176.616 52.5922C172.351 52.7675 168.695 49.7002 170.087 47.5969C171.393 45.5812 173.917 47.2463 173.917 47.2463C173.917 47.2463 173.743 44.3542 176.181 44.2666C178.531 44.2666 179.488 49.262 176.616 52.5922Z" fill="#00B47E"/>
<path d="M319.426 253.471C316.64 252.156 315.334 249.001 316.901 248.125C318.381 247.336 319.426 249.177 319.426 249.177C319.426 249.177 320.296 247.249 321.863 248.037C323.343 248.826 322.385 252.332 319.426 253.471Z" fill="#00B47E"/>
<path d="M377.255 243.818C372.815 243.994 368.985 240.663 370.465 238.472C371.858 236.369 374.469 238.209 374.469 238.209C374.469 238.209 374.382 235.142 376.907 235.142C379.344 235.142 380.301 240.4 377.255 243.818Z" fill="#008D63"/>
<path d="M169.826 41.4622C167.041 40.1476 165.735 36.9927 167.302 36.1163C168.782 35.3275 169.826 37.1679 169.826 37.1679C169.826 37.1679 170.697 35.2399 172.263 36.0286C173.743 36.8174 172.786 40.3229 169.826 41.4622Z" fill="#00B47E"/>
<path d="M358.279 102.546C355.32 102.984 352.447 100.968 353.318 99.3908C354.101 97.901 356.016 98.9526 356.016 98.9526C356.016 98.9526 355.755 96.8493 357.409 96.674C359.063 96.5864 360.107 100.004 358.279 102.546Z" fill="#00B47E"/>
<path d="M331.794 72.3102C328.834 72.7484 325.962 70.7327 326.832 69.1552C327.616 67.6654 329.531 68.717 329.531 68.717C329.531 68.717 329.27 66.6137 330.924 66.4384C332.577 66.3508 333.622 69.7687 331.794 72.3102Z" fill="#00B47E"/>
<path d="M112.289 38.5701C110.548 35.8533 111.158 32.2601 112.986 32.3478C114.814 32.4354 114.639 34.714 114.639 34.714C114.639 34.714 116.467 33.4871 117.425 35.0645C118.382 36.5544 115.51 39.1835 112.289 38.5701Z" fill="#00B47E"/>
<path d="M172.003 60.3922C170.175 60.1293 168.782 58.4642 169.565 57.6754C170.349 56.8867 171.219 57.8507 171.219 57.8507C171.219 57.8507 171.393 56.5361 172.438 56.7114C173.482 56.9743 173.569 59.1653 172.003 60.3922Z" fill="#008D63"/>
<path d="M199.073 61.0924C197.245 60.8295 195.853 59.1644 196.636 58.3756C197.419 57.5869 198.29 58.5509 198.29 58.5509C198.29 58.5509 198.464 57.2363 199.509 57.4116C200.553 57.5869 200.553 59.8655 199.073 61.0924Z" fill="#008D63"/>
<path d="M187.409 47.6844C185.32 45.844 184.972 42.7767 186.539 42.4261C188.019 42.0756 188.454 44.0036 188.454 44.0036C188.454 44.0036 189.673 42.6014 190.804 43.6531C191.936 44.7047 190.195 47.4215 187.409 47.6844Z" fill="#008D63"/>
<path d="M397.188 178.352C395.36 177.738 394.316 175.898 395.273 175.284C396.144 174.671 396.927 175.723 396.927 175.723C396.927 175.723 397.275 174.496 398.32 174.846C399.277 175.197 398.842 177.388 397.188 178.352Z" fill="#008D63"/>
<path d="M158.249 60.0413C156.073 57.4121 156.247 53.4684 158.336 53.3808C160.251 53.2932 160.338 55.6594 160.338 55.6594C160.338 55.6594 162.166 54.1695 163.298 55.6594C164.516 57.3245 161.731 60.3042 158.249 60.0413Z" fill="#008D63"/>
<path d="M398.036 138.842C392.117 136.213 389.158 129.465 392.465 127.537C395.599 125.696 397.862 129.728 397.862 129.728C397.862 129.728 399.69 125.696 402.911 127.274C406.218 128.764 404.216 136.3 398.036 138.842Z" fill="#00DE9B"/>
<path d="M294.337 205.511C281.629 202.706 273.098 190.525 278.931 185.442C284.501 180.621 290.507 187.545 290.507 187.545C290.507 187.545 292.422 178.781 299.56 180.621C306.611 182.374 305.566 197.974 294.337 205.511Z" fill="#008D63"/>
<path d="M152.94 123.578C165.213 119.021 172.002 105.788 165.561 101.581C159.381 97.55 154.419 105.262 154.419 105.262C154.419 105.262 151.373 96.8489 144.496 99.5656C137.62 102.282 140.84 117.619 152.94 123.578Z" fill="#00DE9B"/>
<path d="M316.236 144.7C303.18 145.401 291.69 136.023 295.955 129.538C300.046 123.404 307.619 128.399 307.619 128.399C307.619 128.399 307.097 119.46 314.496 119.197C321.807 119.109 324.941 134.446 316.236 144.7Z" fill="#00B47E"/>
<path d="M268.267 137.246C257.561 129.447 254.601 114.636 262 112.357C269.138 110.166 271.836 119.018 271.836 119.018C271.836 119.018 277.146 111.656 283.065 116.213C288.984 120.683 281.672 134.793 268.267 137.246Z" fill="#00B47E"/>
<path d="M155.986 93.1681C163.646 93.1681 170 87.2964 167.302 83.6156C164.691 80.1101 160.425 83.3527 160.425 83.3527C160.425 83.3527 160.425 78.0944 156.16 78.2697C151.808 78.3573 150.502 87.4717 155.986 93.1681Z" fill="#00DE9B"/>
<path d="M333.036 184.048C326.508 180.105 323.983 171.779 328.075 170.026C332.079 168.361 334.081 173.357 334.081 173.357C334.081 173.357 336.779 168.887 340.348 171.166C344.004 173.444 340.609 181.945 333.036 184.048Z" fill="#008D63"/>
<path d="M126.913 72.9241C130.743 68.7175 130.83 62.3199 127.522 61.8817C124.388 61.5311 123.953 65.4748 123.953 65.4748C123.953 65.4748 121.168 62.8457 118.992 65.2119C116.903 67.7534 121.081 73.0117 126.913 72.9241Z" fill="#00B47E"/>
<path d="M119.079 91.8533C124.737 92.2038 129.699 88.1725 127.871 85.3681C126.13 82.6513 122.822 84.8423 122.822 84.8423C122.822 84.8423 123.083 80.9862 119.862 80.8109C116.729 80.7233 115.249 87.3838 119.079 91.8533Z" fill="#00DE9B"/>
<path d="M176.964 75.7285C180.968 72.9241 182.186 67.4905 179.401 66.6142C176.79 65.7378 175.745 68.9804 175.745 68.9804C175.745 68.9804 173.83 66.2636 171.654 67.9287C169.478 69.5938 172.089 74.7645 176.964 75.7285Z" fill="#00B47E"/>
<path d="M132.658 82.9152C136.923 83.2657 140.666 80.286 139.36 78.1827C138.054 76.167 135.617 77.7445 135.617 77.7445C135.617 77.7445 135.878 74.8525 133.441 74.6772C131.091 74.5895 129.872 79.4973 132.658 82.9152Z" fill="#00DE9B"/>
<path d="M322.852 193.864C319.457 191.322 318.499 186.59 320.937 185.889C323.2 185.188 324.07 188.08 324.07 188.08C324.07 188.08 325.811 185.714 327.639 187.203C329.554 188.606 327.204 193.075 322.852 193.864Z" fill="#00B47E"/>
<path d="M336.692 163.804C330.86 163.541 326.159 158.721 328.336 156.092C330.425 153.551 333.558 156.18 333.558 156.18C333.558 156.18 333.732 152.149 337.04 152.411C340.348 152.587 341.044 159.598 336.692 163.804Z" fill="#00B47E"/>
<path d="M138.402 96.4106C142.668 96.5859 146.324 93.5185 144.931 91.4152C143.625 89.3995 141.101 91.0647 141.101 91.0647C141.101 91.0647 141.275 88.1726 138.838 88.085C136.487 88.085 135.53 93.0803 138.402 96.4106Z" fill="#00B47E"/>
<path d="M253.564 225.063C250.082 222.609 249.124 217.789 251.562 217.088C253.825 216.387 254.695 219.191 254.695 219.191C254.695 219.191 256.349 216.825 258.264 218.315C260.179 219.717 257.916 224.275 253.564 225.063Z" fill="#00B47E"/>
<path d="M141.884 139.091C146.15 139.266 149.806 136.198 148.413 134.095C147.107 132.079 144.583 133.745 144.583 133.745C144.583 133.745 144.757 130.853 142.32 130.765C140.057 130.765 139.012 135.76 141.884 139.091Z" fill="#00B47E"/>
<path d="M292.299 163.191C286.815 163.717 281.941 159.861 283.595 157.144C285.248 154.515 288.469 156.531 288.469 156.531C288.469 156.531 288.121 152.762 291.255 152.587C294.301 152.412 295.781 158.809 292.299 163.191Z" fill="#00B47E"/>
<path d="M316.498 164.944C313.103 162.227 312.233 157.319 314.757 156.706C317.107 156.092 317.89 158.984 317.89 158.984C317.89 158.984 319.718 156.618 321.633 158.196C323.548 159.773 320.937 164.33 316.498 164.944Z" fill="#00DE9B"/>
<path d="M363.763 41.4616C360.368 38.7448 359.498 33.8371 362.022 33.2236C364.372 32.6101 365.156 35.5022 365.156 35.5022C365.156 35.5022 366.984 33.136 368.899 34.7134C370.727 36.2909 368.202 40.8481 363.763 41.4616Z" fill="#00DE9B"/>
<path d="M259.831 162.052C256.436 159.335 255.566 154.427 258.09 153.814C260.44 153.2 261.224 156.093 261.224 156.093C261.224 156.093 263.052 153.726 264.967 155.304C266.795 156.881 264.27 161.438 259.831 162.052Z" fill="#008D63"/>
<path d="M269.58 171.165C267.926 172.042 265.837 171.428 266.011 170.377C266.185 169.325 267.491 169.5 267.491 169.5C267.491 169.5 266.881 168.361 267.839 167.923C268.796 167.485 270.102 169.325 269.58 171.165Z" fill="#00DE9B"/>
<path d="M301.874 169.413C300.394 168.186 300.133 166.082 301.178 165.819C302.222 165.557 302.483 166.871 302.483 166.871C302.483 166.871 303.267 165.907 304.05 166.608C304.92 167.222 303.789 169.15 301.874 169.413Z" fill="#00B47E"/>
<path d="M345.832 109.294C342.872 108.68 340.783 105.876 342.089 104.649C343.395 103.51 344.787 105.087 344.787 105.087C344.787 105.087 345.223 102.984 346.876 103.422C348.617 103.772 348.443 107.453 345.832 109.294Z" fill="#00B47E"/>
<path d="M281.854 168.537C280.026 168.274 278.633 166.609 279.416 165.82C280.2 165.031 281.07 165.995 281.07 165.995C281.07 165.995 281.244 164.681 282.289 164.856C283.333 165.031 283.42 167.31 281.854 168.537Z" fill="#008D63"/>
<path d="M325.811 150.133C323.983 149.87 322.59 148.205 323.374 147.416C324.157 146.628 325.028 147.592 325.028 147.592C325.028 147.592 325.202 146.277 326.246 146.452C327.291 146.628 327.291 148.906 325.811 150.133Z" fill="#008D63"/>
<path d="M303.005 157.056C300.655 154.778 300.481 151.009 302.396 150.659C304.224 150.396 304.572 152.674 304.572 152.674C304.572 152.674 306.139 151.097 307.445 152.411C308.663 153.726 306.4 156.969 303.005 157.056Z" fill="#008D63"/>
<path d="M351.096 169.165C349.268 168.902 347.875 167.237 348.659 166.448C349.442 165.66 350.312 166.624 350.312 166.624C350.312 166.624 350.486 165.309 351.531 165.484C352.575 165.747 352.575 167.938 351.096 169.165Z" fill="#008D63"/>
<path d="M322.243 180.369C320.415 180.106 319.022 178.44 319.805 177.652C320.589 176.863 321.459 177.827 321.459 177.827C321.459 177.827 321.633 176.512 322.678 176.688C323.722 176.951 323.809 179.229 322.243 180.369Z" fill="#00B47E"/>
<path d="M345.832 124.192C342.437 123.754 339.913 120.687 341.392 119.285C342.785 117.882 344.439 119.547 344.439 119.547C344.439 119.547 344.787 117.181 346.702 117.532C348.53 117.882 348.617 122.001 345.832 124.192Z" fill="#00B47E"/>
<path d="M291.034 143.75C289.207 143.487 287.814 141.822 288.597 141.034C289.381 140.245 290.251 141.209 290.251 141.209C290.251 141.209 290.425 139.894 291.47 140.07C292.514 140.245 292.601 142.523 291.034 143.75Z" fill="#008D63"/>
<path d="M147.02 85.2811C149.109 83.4407 149.457 80.3734 147.891 80.0228C146.411 79.6723 145.976 81.6003 145.976 81.6003C145.976 81.6003 144.757 80.1981 143.625 81.2498C142.494 82.2138 144.235 85.0182 147.02 85.2811Z" fill="#008D63"/>
<path d="M154.767 131.992C156.595 131.816 158.075 130.239 157.379 129.45C156.682 128.661 155.725 129.538 155.725 129.538C155.725 129.538 155.638 128.223 154.593 128.398C153.462 128.486 153.288 130.677 154.767 131.992Z" fill="#00B47E"/>
<path d="M144.148 129.801C145.54 128.574 145.801 126.471 144.757 126.208C143.712 125.945 143.451 127.26 143.451 127.26C143.451 127.26 142.581 126.295 141.797 126.997C141.101 127.785 142.233 129.626 144.148 129.801Z" fill="#008D63"/>
<path d="M158.597 73.5375C160.425 72.924 161.47 71.0836 160.512 70.4702C159.642 69.8567 158.858 70.9084 158.858 70.9084C158.858 70.9084 158.51 69.6814 157.466 70.032C156.508 70.3825 156.856 72.5735 158.597 73.5375Z" fill="#008D63"/>
<path d="M113.682 74.2388C115.51 73.9759 116.903 72.3107 116.119 71.522C115.336 70.7332 114.465 71.6973 114.465 71.6973C114.465 71.6973 114.291 70.3827 113.247 70.6456C112.202 70.7332 112.202 73.0118 113.682 74.2388Z" fill="#008D63"/>
<path d="M332.253 124.104C324.941 121.825 320.502 114.376 324.158 111.659C327.64 109.118 330.773 113.412 330.773 113.412C330.773 113.412 332.253 108.417 336.344 109.731C340.435 111.221 339.129 120.248 332.253 124.104Z" fill="#00DE9B"/>
<path d="M334.254 140.404C328.596 140.755 323.635 136.724 325.463 133.919C327.204 131.202 330.511 133.393 330.511 133.393C330.511 133.393 330.25 129.537 333.471 129.362C336.604 129.187 338.084 135.847 334.254 140.404Z" fill="#00DE9B"/>
<path d="M339.652 147.768C337.214 144.35 337.737 139.53 340.261 139.53C342.611 139.53 342.611 142.597 342.611 142.597C342.611 142.597 344.961 140.932 346.267 142.86C347.66 144.788 344.004 148.381 339.652 147.768Z" fill="#00B47E"/>
<path d="M278.459 114.026C274.89 111.747 273.671 107.015 276.021 106.138C278.285 105.262 279.329 108.066 279.329 108.066C279.329 108.066 280.896 105.612 282.898 106.927C284.813 108.417 282.724 113.062 278.459 114.026Z" fill="#00B47E"/>
<path d="M306.4 118.584C304.137 119.285 301.7 118.145 302.135 116.831C302.57 115.604 304.137 116.13 304.137 116.13C304.137 116.13 303.702 114.552 304.921 114.202C306.313 113.763 307.532 116.393 306.4 118.584Z" fill="#00B47E"/>
<path d="M291.863 117.619C288.817 114.903 288.295 110.345 290.558 109.82C292.821 109.294 293.43 112.098 293.43 112.098C293.43 112.098 295.258 109.995 296.912 111.572C298.653 113.15 296.042 117.269 291.863 117.619Z" fill="#008D63"/>
<path d="M315.366 37.5178C311.797 35.2392 310.578 30.5067 312.929 29.6303C315.192 28.754 316.236 31.5584 316.236 31.5584C316.236 31.5584 317.803 29.1045 319.805 30.4191C321.72 31.8213 319.631 36.4661 315.366 37.5178Z" fill="#00B47E"/>
<path d="M303.963 39.7968C301.7 39.0081 300.394 36.7295 301.526 35.8531C302.657 35.0644 303.528 36.4666 303.528 36.4666C303.528 36.4666 304.05 34.8891 305.269 35.4149C306.574 35.8531 306.052 38.6575 303.963 39.7968Z" fill="#00B47E"/>
<path d="M308.925 50.0505C306.662 50.7516 304.224 49.6123 304.66 48.2978C305.095 47.0708 306.662 47.5967 306.662 47.5967C306.662 47.5967 306.226 46.0192 307.445 45.6686C308.751 45.3181 309.969 47.8596 308.925 50.0505Z" fill="#00B47E"/>
<path d="M294.388 49.0869C291.341 46.3701 290.819 41.8129 293.082 41.2871C295.345 40.7613 295.955 43.5657 295.955 43.5657C295.955 43.5657 297.783 41.4624 299.436 43.0399C301.09 44.6174 298.479 48.7363 294.388 49.0869Z" fill="#008D63"/>
<path d="M343.046 133.832C341.218 133.569 339.826 131.904 340.609 131.115C341.393 130.327 342.263 131.291 342.263 131.291C342.263 131.291 342.437 129.976 343.482 130.239C344.613 130.414 344.613 132.693 343.046 133.832Z" fill="#008D63"/>
<path d="M256.611 134.271C254.957 133.395 254.173 131.379 255.218 130.941C256.175 130.502 256.785 131.642 256.785 131.642C256.785 131.642 257.394 130.502 258.264 131.028C259.135 131.554 258.439 133.657 256.611 134.271Z" fill="#008D63"/>
<path d="M253.651 152.148C247.209 152.148 241.725 147.153 244.076 144.086C246.252 141.106 249.908 143.911 249.908 143.911C249.908 143.911 249.908 139.441 253.564 139.529C257.132 139.616 258.264 147.328 253.651 152.148Z" fill="#00DE9B"/>
<path d="M223.662 152.414C214.87 145.753 212.52 133.397 218.787 131.556C224.707 129.803 226.97 137.253 226.97 137.253C226.97 137.253 231.496 131.206 236.371 135.062C241.071 138.918 234.804 150.574 223.662 152.414Z" fill="#008D63"/>
<path d="M192.98 201.927C182.274 194.127 179.314 179.316 186.713 177.038C193.851 174.847 196.549 183.698 196.549 183.698C196.549 183.698 201.859 176.337 207.778 180.894C213.61 185.451 206.298 199.473 192.98 201.927Z" fill="#00B47E"/>
<path d="M192.11 169.5C184.45 169.5 178.096 163.629 180.794 159.948C183.405 156.442 187.671 159.685 187.671 159.685C187.671 159.685 187.671 154.427 191.936 154.602C196.201 154.777 197.507 163.804 192.11 169.5Z" fill="#008D63"/>
<path d="M236.503 213.057C228.843 213.057 222.489 207.186 225.187 203.505C227.798 199.999 232.064 203.242 232.064 203.242C232.064 203.242 232.064 197.984 236.329 198.159C240.681 198.334 241.987 207.361 236.503 213.057Z" fill="#00DE9B"/>
<path d="M214.916 132.605C210.041 132.43 206.124 128.574 207.865 126.295C209.606 124.104 212.217 126.295 212.217 126.295C212.217 126.295 212.304 122.965 215.09 123.14C217.875 123.316 218.484 129.1 214.916 132.605Z" fill="#008D63"/>
<path d="M215.786 171.692C211.521 172.043 207.778 169.063 209.084 166.96C210.389 164.944 212.827 166.521 212.827 166.521C212.827 166.521 212.565 163.629 215.003 163.454C217.44 163.366 218.572 168.274 215.786 171.692Z" fill="#00DE9B"/>
<path d="M249.385 214.021C243.902 210.691 241.813 203.68 245.294 202.19C248.602 200.788 250.343 204.994 250.343 204.994C250.343 204.994 252.606 201.226 255.653 203.154C258.699 205.082 255.827 212.268 249.385 214.021Z" fill="#008D63"/>
<path d="M196.114 140.843C192.632 138.39 191.675 133.569 194.112 132.868C196.375 132.167 197.246 134.972 197.246 134.972C197.246 134.972 198.9 132.605 200.815 134.095C202.73 135.585 200.466 140.055 196.114 140.843Z" fill="#00B47E"/>
<path d="M223.446 199.035C219.181 199.21 215.525 196.143 216.918 194.04C218.224 192.024 220.748 193.689 220.748 193.689C220.748 193.689 220.574 190.797 223.011 190.709C225.361 190.797 226.319 195.792 223.446 199.035Z" fill="#00B47E"/>
<path d="M235.197 157.757C232.411 156.443 231.106 153.288 232.672 152.411C234.152 151.622 235.197 153.463 235.197 153.463C235.197 153.463 236.067 151.535 237.634 152.324C239.114 153.112 238.069 156.618 235.197 157.757Z" fill="#00B47E"/>
<path d="M217.583 185.991C214.797 184.676 213.492 181.521 215.058 180.645C216.538 179.856 217.583 181.696 217.583 181.696C217.583 181.696 218.453 179.768 220.02 180.557C221.5 181.346 220.455 184.851 217.583 185.991Z" fill="#00B47E"/>
<path d="M247.732 115.341C242.248 115.867 237.374 112.011 239.027 109.294C240.681 106.665 243.902 108.681 243.902 108.681C243.902 108.681 243.554 104.912 246.687 104.737C249.734 104.562 251.301 110.959 247.732 115.341Z" fill="#00B47E"/>
<path d="M224.578 119.372C218.659 119.722 213.436 115.516 215.351 112.624C217.179 109.819 220.661 112.098 220.661 112.098C220.661 112.098 220.4 108.066 223.707 107.891C227.015 107.804 228.495 114.727 224.578 119.372Z" fill="#00B47E"/>
<path d="M223.533 130.677C221.357 128.223 221.357 124.455 223.272 124.28C225.1 124.104 225.361 126.383 225.361 126.383C225.361 126.383 227.015 124.893 228.233 126.295C229.452 127.698 226.928 130.765 223.533 130.677Z" fill="#00B47E"/>
<path d="M331.992 104.386C329.816 101.933 329.816 98.1641 331.731 97.9889C333.559 97.8136 333.82 100.092 333.82 100.092C333.82 100.092 335.474 98.6023 336.692 100.005C337.911 101.407 335.387 104.474 331.992 104.386Z" fill="#00B47E"/>
<path d="M210.563 119.723C208.735 119.46 207.343 117.794 208.126 117.006C208.909 116.217 209.78 117.181 209.78 117.181C209.78 117.181 209.954 115.866 210.999 116.042C212.043 116.217 212.043 118.496 210.563 119.723Z" fill="#008D63"/>
<path d="M219.181 207.974C217.353 207.711 215.96 206.046 216.743 205.257C217.527 204.468 218.397 205.432 218.397 205.432C218.397 205.432 218.571 204.118 219.616 204.293C220.661 204.556 220.661 206.834 219.181 207.974Z" fill="#008D63"/>
<path d="M202.381 174.584C200.553 174.409 199.074 172.831 199.77 172.042C200.466 171.254 201.424 172.13 201.424 172.13C201.424 172.13 201.511 170.815 202.555 170.991C203.6 171.078 203.774 173.357 202.381 174.584Z" fill="#00B47E"/>
<path d="M228.147 165.119C226.754 163.892 226.493 161.789 227.537 161.526C228.582 161.263 228.843 162.578 228.843 162.578C228.843 162.578 229.713 161.614 230.497 162.315C231.28 163.016 230.062 164.944 228.147 165.119Z" fill="#008D63"/>
<path d="M208.648 204.118C206.472 201.489 206.646 197.545 208.735 197.457C210.65 197.37 210.737 199.736 210.737 199.736C210.737 199.736 212.565 198.246 213.697 199.736C214.828 201.313 212.13 204.381 208.648 204.118Z" fill="#008D63"/>
<path d="M311.884 183.522C305.53 182.383 301.003 176.511 303.789 173.882C306.4 171.341 309.534 174.671 309.534 174.671C309.534 174.671 310.317 170.289 313.886 170.99C317.455 171.779 317.281 179.579 311.884 183.522Z" fill="#00DE9B"/>
<path d="M89.3964 72.3982C95.7507 71.259 100.277 65.3872 97.4916 62.7581C94.8802 60.2166 91.7466 63.5468 91.7466 63.5468C91.7466 63.5468 90.9632 59.1649 87.3943 59.866C83.8255 60.6548 84.0866 68.4545 89.3964 72.3982Z" fill="#008D63"/>
<path d="M77.1229 96.3238C71.4649 96.6743 66.5034 92.643 68.3313 89.8386C70.0722 87.1218 73.3799 89.3127 73.3799 89.3127C73.3799 89.3127 73.1188 85.4566 76.3395 85.2814C79.4731 85.1937 80.8658 91.8542 77.1229 96.3238Z" fill="#00DE9B"/>
<path d="M367.506 161.613C361.151 160.474 356.625 154.602 359.411 151.973C362.022 149.431 365.155 152.761 365.155 152.761C365.155 152.761 365.939 148.38 369.508 149.081C373.077 149.957 372.903 157.669 367.506 161.613Z" fill="#00DE9B"/>
<path d="M276.805 76.2542C267.491 65.2994 267.926 48.9988 276.37 48.3853C284.378 47.7718 285.161 57.8502 285.161 57.8502C285.161 57.8502 292.56 51.4526 297.696 57.6749C302.745 64.0725 291.516 77.0429 276.805 76.2542Z" fill="#008D63"/>
<path d="M260.44 75.2903C254.608 73.9757 250.691 68.3669 253.39 66.0007C255.914 63.8097 258.699 66.9647 258.699 66.9647C258.699 66.9647 259.57 62.9333 262.877 63.8097C266.098 64.6861 265.663 71.8724 260.44 75.2903Z" fill="#008D63"/>
<path d="M330.947 33.3114C329.032 30.6823 329.467 26.9139 331.382 27.0015C333.21 27.0015 333.21 29.3677 333.21 29.3677C333.21 29.3677 335.038 28.0532 336.083 29.6306C337.04 31.0329 334.255 33.7496 330.947 33.3114Z" fill="#008D63"/>
<path d="M186.278 330.755C176.094 322.517 173.83 307.794 181.316 305.866C188.454 304.025 190.717 312.964 190.717 312.964C190.717 312.964 196.288 305.953 201.859 310.773C207.43 315.506 199.596 329.09 186.278 330.755Z" fill="#00DE9B"/>
<path d="M277.327 333.647C275.499 333.384 274.107 331.719 274.89 330.93C275.673 330.141 276.544 331.105 276.544 331.105C276.544 331.105 276.718 329.791 277.762 329.966C278.807 330.229 278.894 332.42 277.327 333.647Z" fill="#008D63"/>
<path d="M226.754 355.819C222.924 355.293 220.051 351.876 221.618 350.21C223.185 348.633 225.1 350.561 225.1 350.561C225.1 350.561 225.448 347.932 227.624 348.282C229.8 348.545 229.887 353.278 226.754 355.819Z" fill="#00B47E"/>
<path d="M225.622 341.009C222.141 340.921 219.355 338.117 220.574 336.539C221.792 334.962 223.707 336.539 223.707 336.539C223.707 336.539 223.794 334.173 225.709 334.261C227.712 334.348 228.234 338.467 225.622 341.009Z" fill="#008D63"/>
<path d="M229.626 293.596C225.361 293.947 221.618 290.967 222.924 288.864C224.23 286.848 226.667 288.426 226.667 288.426C226.667 288.426 226.406 285.534 228.843 285.358C231.193 285.183 232.325 290.179 229.626 293.596Z" fill="#00DE9B"/>
<path d="M189.585 276.506C186.017 274.228 184.798 269.495 187.148 268.619C189.411 267.742 190.456 270.547 190.456 270.547C190.456 270.547 192.023 268.093 194.025 269.408C195.853 270.897 193.851 275.542 189.585 276.506Z" fill="#00B47E"/>
<path d="M331.208 296.401C324.767 296.401 319.283 291.405 321.633 288.338C323.809 285.358 327.465 288.163 327.465 288.163C327.465 288.163 327.465 283.693 331.121 283.781C334.69 283.868 335.821 291.493 331.208 296.401Z" fill="#00DE9B"/>
<path d="M260.528 349.422C250.953 345.829 245.643 335.487 250.691 332.245C255.479 329.09 259.396 335.137 259.396 335.137C259.396 335.137 261.833 328.564 267.143 330.667C272.453 332.858 270.015 344.865 260.528 349.422Z" fill="#008D63"/>
<path d="M153.723 307.18C149.98 302.711 150.241 296.05 153.636 295.875C156.943 295.7 157.205 299.731 157.205 299.731C157.205 299.731 160.251 297.19 162.253 299.731C164.342 302.36 159.729 307.618 153.723 307.18Z" fill="#00DE9B"/>
<path d="M236.329 354.418C230.062 350.123 228.06 341.622 232.238 340.133C236.329 338.73 238.07 343.813 238.07 343.813C238.07 343.813 241.03 339.519 244.511 341.973C247.906 344.514 243.989 352.752 236.329 354.418Z" fill="#008D63"/>
<path d="M152.591 293.596C146.324 294.122 140.666 289.74 142.668 286.585C144.496 283.518 148.239 285.884 148.239 285.884C148.239 285.884 147.891 281.59 151.372 281.415C154.941 281.239 156.682 288.601 152.591 293.596Z" fill="#00DE9B"/>
<path d="M239.724 336.714C236.242 334.26 235.284 329.44 237.722 328.739C239.985 328.038 240.855 330.843 240.855 330.843C240.855 330.843 242.509 328.476 244.424 329.966C246.339 331.456 244.076 335.925 239.724 336.714Z" fill="#00B47E"/>
<path d="M212.653 342.937C208.387 343.112 204.732 340.045 206.124 337.942C207.43 335.926 209.954 337.591 209.954 337.591C209.954 337.591 209.78 334.699 212.217 334.611C214.481 334.611 215.525 339.607 212.653 342.937Z" fill="#00B47E"/>
<path d="M205.863 331.806C203.078 330.492 201.772 327.337 203.339 326.461C204.818 325.672 205.863 327.512 205.863 327.512C205.863 327.512 206.733 325.584 208.3 326.373C209.78 327.162 208.736 330.667 205.863 331.806Z" fill="#00B47E"/>
<path d="M267.578 309.547C261.659 309.897 256.436 305.69 258.351 302.798C260.179 299.994 263.661 302.273 263.661 302.273C263.661 302.273 263.4 298.241 266.708 298.066C270.015 297.891 271.495 304.814 267.578 309.547Z" fill="#00B47E"/>
<path d="M207.173 298.766C203.604 294.034 204.3 287.286 207.782 287.286C211.09 287.286 211.09 291.405 211.09 291.405C211.09 291.405 214.311 288.951 216.226 291.668C218.141 294.384 213.179 299.467 207.173 298.766Z" fill="#008D63"/>
<path d="M178.121 296.582C175.335 293.252 175.509 288.256 178.034 288.169C180.471 287.994 180.645 291.061 180.645 291.061C180.645 291.061 182.908 289.133 184.475 291.061C186.042 292.901 182.56 296.845 178.121 296.582Z" fill="#00B47E"/>
<path d="M267.143 326.548C264.967 324.094 264.967 320.326 266.882 320.15C268.71 319.975 268.971 322.254 268.971 322.254C268.971 322.254 270.625 320.764 271.843 322.166C273.062 323.568 270.538 326.636 267.143 326.548Z" fill="#00B47E"/>
<path d="M324.071 306.918C321.894 304.464 321.894 300.696 323.809 300.52C325.637 300.345 325.899 302.624 325.899 302.624C325.899 302.624 327.552 301.134 328.771 302.536C329.903 303.938 327.465 307.006 324.071 306.918Z" fill="#00B47E"/>
<path d="M201.511 283.518C199.334 281.064 199.334 277.296 201.249 277.12C203.077 276.945 203.338 279.224 203.338 279.224C203.338 279.224 204.992 277.734 206.211 279.136C207.343 280.538 204.905 283.606 201.511 283.518Z" fill="#00B47E"/>
<path d="M209.606 221.119C204.731 220.944 200.814 217.088 202.555 214.809C204.296 212.618 206.907 214.809 206.907 214.809C206.907 214.809 206.994 211.479 209.78 211.654C212.565 211.83 213.262 217.614 209.606 221.119Z" fill="#008D63"/>
<path d="M218.31 219.191C216.134 216.738 216.134 212.969 218.049 212.794C219.877 212.619 220.138 214.897 220.138 214.897C220.138 214.897 221.792 213.407 223.011 214.81C224.142 216.212 221.705 219.279 218.31 219.191Z" fill="#00B47E"/>
<path d="M216.221 324.007C211.347 323.832 207.43 319.976 209.171 317.697C210.912 315.506 213.523 317.697 213.523 317.697C213.523 317.697 213.61 314.367 216.396 314.542C219.094 314.717 219.79 320.501 216.221 324.007Z" fill="#008D63"/>
<path d="M223.145 311.038C217.226 311.389 212.003 307.182 213.918 304.29C215.746 301.485 219.228 303.764 219.228 303.764C219.228 303.764 218.967 299.733 222.274 299.557C225.495 299.382 227.062 306.306 223.145 311.038Z" fill="#00B47E"/>
<path d="M260.005 280.801C257.22 277.471 257.394 272.475 259.918 272.388C262.355 272.213 262.529 275.28 262.529 275.28C262.529 275.28 264.793 273.352 266.359 275.28C267.839 277.12 264.444 281.064 260.005 280.801Z" fill="#00B47E"/>
<path d="M224.839 322.079C222.663 319.625 222.663 315.856 224.578 315.681C226.405 315.506 226.667 317.784 226.667 317.784C226.667 317.784 228.32 316.294 229.539 317.697C230.758 319.099 228.233 322.166 224.839 322.079Z" fill="#00B47E"/>
<path d="M254.347 297.277C252.171 294.823 252.171 291.055 254.086 290.88C255.914 290.704 256.175 292.983 256.175 292.983C256.175 292.983 257.829 291.493 259.048 292.895C260.266 294.298 257.742 297.365 254.347 297.277Z" fill="#008D63"/>
<path d="M298.914 328.389C297.086 328.126 295.693 326.461 296.477 325.672C297.26 324.883 298.131 325.847 298.131 325.847C298.131 325.847 298.305 324.533 299.349 324.708C300.394 324.883 300.394 327.162 298.914 328.389Z" fill="#008D63"/>
<path d="M288.991 336.276C284.204 335.225 281.07 330.58 283.246 328.739C285.336 326.987 287.512 329.528 287.512 329.528C287.512 329.528 288.295 326.286 290.906 326.987C293.692 327.688 293.257 333.472 288.991 336.276Z" fill="#00B47E"/>
<path d="M248.341 354.593C246.252 352.753 245.904 349.685 247.471 349.335C248.951 348.984 249.386 350.912 249.386 350.912C249.386 350.912 250.604 349.51 251.736 350.562C252.868 351.613 251.127 354.33 248.341 354.593Z" fill="#008D63"/>
<path d="M277.327 303.324C275.238 301.483 274.89 298.416 276.457 298.066C277.937 297.715 278.372 299.643 278.372 299.643C278.372 299.643 279.591 298.241 280.722 299.292C281.854 300.257 280.113 303.061 277.327 303.324Z" fill="#008D63"/>
<path d="M230.758 330.229C227.972 329.177 226.493 326.198 227.972 325.234C229.365 324.357 230.497 326.11 230.497 326.11C230.497 326.11 231.193 324.182 232.76 324.883C234.24 325.497 233.543 328.915 230.758 330.229Z" fill="#00DE9B"/>
<path d="M237.286 360.991C235.458 360.816 233.978 359.238 234.675 358.449C235.371 357.661 236.329 358.537 236.329 358.537C236.329 358.537 236.416 357.222 237.46 357.398C238.505 357.485 238.679 359.676 237.286 360.991Z" fill="#00B47E"/>
<path d="M161.121 295.876C159.729 294.649 159.468 292.545 160.512 292.282C161.557 292.019 161.818 293.334 161.818 293.334C161.818 293.334 162.688 292.37 163.472 293.071C164.168 293.772 163.036 295.7 161.121 295.876Z" fill="#008D63"/>
<path d="M170 306.041C167.824 303.412 167.998 299.468 170.087 299.381C172.002 299.293 172.089 301.659 172.089 301.659C172.089 301.659 173.917 300.17 175.049 301.659C176.181 303.237 173.482 306.304 170 306.041Z" fill="#008D63"/>
<path d="M111.157 220.507C123.866 217.702 132.397 205.521 126.564 200.438C120.994 195.618 114.987 202.541 114.987 202.541C114.987 202.541 113.072 193.777 105.935 195.618C98.8841 197.37 100.016 212.97 111.157 220.507Z" fill="#008D63"/>
<path d="M82.126 176.073C95.1828 176.774 106.673 167.396 102.408 160.911C98.3164 154.777 90.7435 159.772 90.7435 159.772C90.7435 159.772 91.2658 150.833 83.8669 150.57C76.5551 150.482 73.4215 165.819 82.126 176.073Z" fill="#00B47E"/>
<path d="M127.435 166.871C138.142 159.072 141.101 144.261 133.702 141.982C126.565 139.791 123.866 148.643 123.866 148.643C123.866 148.643 118.556 141.281 112.637 145.838C106.805 150.308 114.03 164.418 127.435 166.871Z" fill="#00B47E"/>
<path d="M139.273 217.614C132.745 213.67 130.221 205.345 134.312 203.592C138.316 201.927 140.318 206.922 140.318 206.922C140.318 206.922 143.016 202.453 146.585 204.731C150.328 207.01 146.846 215.511 139.273 217.614Z" fill="#008D63"/>
<path d="M97.3174 223.485C101.147 219.279 101.234 212.881 97.9268 212.443C94.7931 212.092 94.3579 216.036 94.3579 216.036C94.3579 216.036 91.5725 213.407 89.3963 215.773C87.2202 218.227 91.4854 223.573 97.3174 223.485Z" fill="#00B47E"/>
<path d="M349.401 233.565C346.006 231.023 345.048 226.291 347.486 225.59C349.749 224.888 350.619 227.781 350.619 227.781C350.619 227.781 352.36 225.414 354.188 226.904C356.103 228.306 353.666 232.776 349.401 233.565Z" fill="#00B47E"/>
<path d="M369.595 261.784C364.111 260.907 360.107 256 362.457 253.721C364.72 251.53 367.418 254.247 367.418 254.247C367.418 254.247 367.941 250.478 371.074 251.004C374.121 251.53 374.121 258.278 369.595 261.784Z" fill="#008D63"/>
<path d="M141.461 197.03C135.629 196.767 130.929 191.947 133.105 189.318C135.194 186.776 138.328 189.406 138.328 189.406C138.328 189.406 138.502 185.374 141.81 185.637C145.117 185.812 145.814 192.823 141.461 197.03Z" fill="#00B47E"/>
<path d="M126.043 181.857C121.342 178.352 120.036 171.779 123.344 170.815C126.478 169.851 127.696 173.795 127.696 173.795C127.696 173.795 130.047 170.552 132.658 172.568C135.182 174.584 131.962 180.806 126.043 181.857Z" fill="#008D63"/>
<path d="M107.067 190.534C112.551 191.06 117.425 187.204 115.771 184.487C114.117 181.858 110.897 183.874 110.897 183.874C110.897 183.874 111.245 180.105 108.111 179.93C105.065 179.755 103.585 186.152 107.067 190.534Z" fill="#00B47E"/>
<path d="M82.8679 192.287C86.2627 189.57 87.1331 184.662 84.6088 184.049C82.2586 183.435 81.4752 186.327 81.4752 186.327C81.4752 186.327 79.6472 183.961 77.7322 185.539C75.9043 187.116 78.4286 191.673 82.8679 192.287Z" fill="#00DE9B"/>
<path d="M97.4915 196.756C98.9713 195.529 99.2324 193.426 98.1879 193.163C97.1433 192.9 96.8822 194.215 96.8822 194.215C96.8822 194.215 96.0988 193.251 95.3154 193.952C94.4449 194.565 95.5765 196.493 97.4915 196.756Z" fill="#00B47E"/>
<path d="M117.512 195.88C119.34 195.617 120.733 193.952 119.949 193.163C119.166 192.374 118.296 193.339 118.296 193.339C118.296 193.339 118.121 192.024 117.077 192.199C116.032 192.374 116.032 194.653 117.512 195.88Z" fill="#008D63"/>
<path d="M352.882 252.932C351.054 252.669 349.661 251.004 350.445 250.215C351.228 249.427 352.099 250.391 352.099 250.391C352.099 250.391 352.273 249.076 353.317 249.251C354.362 249.514 354.362 251.793 352.882 252.932Z" fill="#008D63"/>
<path d="M96.4472 184.4C98.7974 182.121 98.9715 178.353 97.0565 178.002C95.2285 177.739 94.8803 180.018 94.8803 180.018C94.8803 180.018 93.3135 178.44 92.0078 179.755C90.7022 181.069 93.0524 184.312 96.4472 184.4Z" fill="#008D63"/>
<path d="M153.503 212.108C151.675 211.845 150.282 210.18 151.066 209.391C151.849 208.603 152.72 209.567 152.72 209.567C152.72 209.567 152.894 208.252 153.938 208.427C154.983 208.69 154.983 210.881 153.503 212.108Z" fill="#008D63"/>
<path d="M77.123 207.711C78.9509 207.448 80.3436 205.783 79.5602 204.994C78.7768 204.206 77.9064 205.17 77.9064 205.17C77.9064 205.17 77.7323 203.855 76.6877 204.03C75.6432 204.293 75.6432 206.572 77.123 207.711Z" fill="#00B47E"/>
<path d="M150.154 154.865C146.759 154.427 144.235 151.36 145.715 149.958C147.107 148.555 148.761 150.221 148.761 150.221C148.761 150.221 149.109 147.854 151.024 148.205C152.852 148.555 152.939 152.674 150.154 154.865Z" fill="#00B47E"/>
<path d="M109.852 166.872C111.68 166.609 113.073 164.944 112.289 164.155C111.506 163.366 110.636 164.33 110.636 164.33C110.636 164.33 110.462 163.016 109.417 163.191C108.372 163.366 108.372 165.645 109.852 166.872Z" fill="#008D63"/>
<path d="M123.257 141.107C126.826 138.828 128.045 134.096 125.694 133.219C123.431 132.343 122.387 135.147 122.387 135.147C122.387 135.147 120.82 132.694 118.818 134.008C116.903 135.41 118.992 140.143 123.257 141.107Z" fill="#00B47E"/>
<path d="M107.502 144.962C110.548 142.245 111.07 137.688 108.807 137.162C106.544 136.636 105.935 139.441 105.935 139.441C105.935 139.441 104.107 137.337 102.453 138.915C100.799 140.492 103.323 144.611 107.502 144.962Z" fill="#008D63"/>
<path d="M157.855 191.006C156.027 190.743 154.635 189.078 155.418 188.289C156.201 187.5 157.072 188.464 157.072 188.464C157.072 188.464 157.246 187.15 158.291 187.413C159.422 187.588 159.422 189.779 157.855 191.006Z" fill="#008D63"/>
<path d="M87.4816 210.866C93.8359 209.727 98.3623 203.855 95.5768 201.226C92.9655 198.684 89.8318 202.014 89.8318 202.014C89.8318 202.014 89.0484 197.632 85.4796 198.334C81.9107 199.122 82.0848 206.922 87.4816 210.866Z" fill="#00DE9B"/>
<path d="M197.246 101.143C195.244 98.7767 195.418 95.2712 197.246 95.1836C198.986 95.0959 199.074 97.1992 199.074 97.1992C199.074 97.1992 200.64 95.797 201.772 97.1992C202.817 98.6014 200.379 101.406 197.246 101.143Z" fill="#00B47E"/>
<path d="M190.717 96.4986C187.583 95.6222 185.581 92.4673 187.061 91.2403C188.541 90.101 189.934 91.9414 189.934 91.9414C189.934 91.9414 190.543 89.7505 192.284 90.2763C194.112 90.8021 193.676 94.7459 190.717 96.4986Z" fill="#00B47E"/>
<path d="M169.913 291.58C157.205 288.776 148.674 276.594 154.506 271.511C160.077 266.691 166.083 273.615 166.083 273.615C166.083 273.615 167.998 264.851 175.136 266.691C182.1 268.444 181.055 284.131 169.913 291.58Z" fill="#008D63"/>
<path d="M140.231 282.379C130.134 283.43 120.82 276.419 123.953 271.249C126.913 266.341 133.006 270.022 133.006 270.022C133.006 270.022 132.31 263.098 138.055 262.66C143.713 262.222 146.672 274.053 140.231 282.379Z" fill="#008D63"/>
<path d="M187.235 82.126C183.405 77.9194 183.318 71.5218 186.626 71.0836C189.76 70.733 190.195 74.6768 190.195 74.6768C190.195 74.6768 192.98 72.0476 195.156 74.4138C197.245 76.8677 193.067 82.2136 187.235 82.126Z" fill="#00B47E"/>
<path d="M207.343 98.8642C203.513 94.6576 203.426 88.2601 206.734 87.8219C209.867 87.4713 210.302 91.415 210.302 91.415C210.302 91.415 213.088 88.7859 215.264 91.1521C217.44 93.606 213.175 98.9519 207.343 98.8642Z" fill="#00B47E"/>
<path d="M180.446 96.2354C176.181 96.5859 172.438 93.6063 173.743 91.5029C175.049 89.4873 177.486 91.0647 177.486 91.0647C177.486 91.0647 177.225 88.1727 179.662 87.9974C182.013 87.8221 183.231 92.8175 180.446 96.2354Z" fill="#00DE9B"/>
<path d="M206.995 83.9662C203.6 81.4247 202.642 76.6923 205.08 75.9912C207.343 75.2901 208.213 78.1821 208.213 78.1821C208.213 78.1821 209.954 75.8159 211.782 77.3058C213.61 78.708 211.26 83.1775 206.995 83.9662Z" fill="#00B47E"/>
<path d="M370.465 57.4121C364.111 55.1335 360.542 48.3853 363.85 46.1944C366.984 44.0911 369.595 48.0348 369.595 48.0348C369.595 48.0348 371.075 43.6529 374.644 45.0551C378.212 46.3697 376.646 54.2571 370.465 57.4121Z" fill="#008D63"/>
<path d="M144.67 261.871C141.275 259.154 140.405 254.246 142.929 253.633C145.279 253.02 146.063 255.912 146.063 255.912C146.063 255.912 147.891 253.545 149.806 255.123C151.721 256.7 149.109 261.17 144.67 261.871Z" fill="#008D63"/>
<path d="M167.675 242.246C164.89 238.916 165.064 233.921 167.588 233.833C170.026 233.658 170.2 236.725 170.2 236.725C170.2 236.725 172.463 234.797 174.03 236.725C175.597 238.566 172.115 242.509 167.675 242.246Z" fill="#00B47E"/>
<path d="M155.117 231.915C149.459 230.688 145.629 225.254 148.153 222.975C150.59 220.784 153.289 223.939 153.289 223.939C153.289 223.939 154.159 219.996 157.293 220.784C160.601 221.486 160.165 228.497 155.117 231.915Z" fill="#008D63"/>
<path d="M155.725 263.011C153.897 262.748 152.504 261.083 153.288 260.294C154.071 259.505 154.941 260.469 154.941 260.469C154.941 260.469 155.116 259.155 156.16 259.33C157.205 259.593 157.205 261.784 155.725 263.011Z" fill="#00B47E"/>
<path d="M154.419 270.899C152.765 271.775 150.676 271.162 150.85 270.11C151.024 269.058 152.33 269.233 152.33 269.233C152.33 269.233 151.721 268.094 152.678 267.656C153.636 267.218 154.941 269.058 154.419 270.899Z" fill="#00DE9B"/>
<path d="M334.951 44.2662C333.123 44.0033 331.731 42.3382 332.514 41.5494C333.297 40.7607 334.168 41.7247 334.168 41.7247C334.168 41.7247 334.342 40.4101 335.386 40.5854C336.431 40.7607 336.431 43.0393 334.951 44.2662Z" fill="#00B47E"/>
<path d="M380.911 47.6837C379.083 47.4208 377.69 45.7557 378.474 44.9669C379.257 44.1782 380.128 45.1422 380.128 45.1422C380.128 45.1422 380.302 43.8276 381.346 44.0029C382.391 44.2658 382.478 46.4568 380.911 47.6837Z" fill="#00B47E"/>
<path d="M200.031 83.3528C198.203 83.0899 196.81 81.4248 197.594 80.636C198.377 79.8473 199.247 80.8113 199.247 80.8113C199.247 80.8113 199.422 79.4967 200.466 79.7596C201.511 79.8473 201.511 82.1259 200.031 83.3528Z" fill="#008D63"/>
<path d="M141.45 234.09C139.796 233.213 139.012 231.198 140.057 230.759C141.014 230.321 141.624 231.461 141.624 231.461C141.624 231.461 142.233 230.321 143.104 230.847C143.974 231.285 143.278 233.476 141.45 234.09Z" fill="#008D63"/>
<path d="M138.49 251.88C132.049 251.88 126.565 246.885 128.915 243.818C131.091 240.838 134.747 243.642 134.747 243.642C134.747 243.642 134.747 239.173 138.403 239.261C141.972 239.348 143.103 247.06 138.49 251.88Z" fill="#00DE9B"/>
<path d="M204.558 71.4338C201.946 65.4744 204.296 58.4634 208.039 59.3398C211.608 60.1285 210.564 64.5981 210.564 64.5981C210.564 64.5981 214.568 62.8453 215.96 66.1755C217.353 69.5934 210.738 73.7124 204.558 71.4338Z" fill="#00DE9B"/>
<path d="M99.0582 246.447C92.5298 242.503 90.0054 234.178 94.0966 232.425C98.1007 230.76 100.103 235.755 100.103 235.755C100.103 235.755 102.801 231.286 106.37 233.564C110.113 235.843 106.631 244.344 99.0582 246.447Z" fill="#008D63"/>
<path d="M116.293 256.087C110.461 255.824 105.761 251.004 107.937 248.375C110.026 245.834 113.16 248.463 113.16 248.463C113.16 248.463 113.334 244.432 116.641 244.694C119.949 244.957 120.645 251.968 116.293 256.087Z" fill="#00B47E"/>
<path d="M292.299 293.509C289.34 292.895 287.251 290.091 288.556 288.864C289.862 287.724 291.255 289.302 291.255 289.302C291.255 289.302 291.69 287.199 293.344 287.637C295.085 287.987 294.911 291.668 292.299 293.509Z" fill="#00B47E"/>
<path d="M126.565 261.784C124.737 261.521 123.344 259.856 124.127 259.067C124.911 258.278 125.781 259.242 125.781 259.242C125.781 259.242 125.955 257.928 127 258.103C128.044 258.278 128.044 260.557 126.565 261.784Z" fill="#008D63"/>
<path d="M134.921 228.481C131.526 228.043 129.002 224.976 130.482 223.573C131.874 222.171 133.528 223.836 133.528 223.836C133.528 223.836 133.876 221.47 135.791 221.821C137.619 222.171 137.706 226.29 134.921 228.481Z" fill="#00B47E"/>
<path d="M275.586 294.035C268.275 291.756 263.835 284.307 267.491 281.59C270.973 279.049 274.107 283.343 274.107 283.343C274.107 283.343 275.586 278.348 279.678 279.662C283.769 281.152 282.376 290.179 275.586 294.035Z" fill="#00DE9B"/>
<path d="M113.856 232.688C108.198 233.039 103.237 229.008 105.064 226.203C106.805 223.486 110.113 225.677 110.113 225.677C110.113 225.677 109.852 221.821 113.073 221.646C116.206 221.558 117.686 228.219 113.856 232.688Z" fill="#00DE9B"/>
<path d="M119.34 240.05C116.903 236.632 117.425 231.812 119.949 231.812C122.3 231.812 122.299 234.879 122.299 234.879C122.299 234.879 124.65 233.214 125.955 235.142C127.261 237.158 123.605 240.663 119.34 240.05Z" fill="#00B47E"/>
<path d="M123.779 223.836C121.951 223.573 120.558 221.908 121.342 221.119C122.125 220.331 122.996 221.295 122.996 221.295C122.996 221.295 123.17 219.98 124.214 220.243C125.346 220.418 125.346 222.697 123.779 223.836Z" fill="#008D63"/>
<path d="M306.661 286.761C304.485 284.307 304.485 280.538 306.4 280.363C308.228 280.188 308.489 282.466 308.489 282.466C308.489 282.466 310.143 280.977 311.362 282.379C312.493 283.781 310.056 286.848 306.661 286.761Z" fill="#00B47E"/>
<path d="M212.13 254.509C222.227 255.561 231.541 248.55 228.407 243.379C225.448 238.472 219.355 242.152 219.355 242.152C219.355 242.152 220.051 235.229 214.306 234.791C208.561 234.353 205.602 246.184 212.13 254.509Z" fill="#008D63"/>
<path d="M306.487 322.166C310.317 317.96 310.404 311.562 307.096 311.124C303.963 310.773 303.527 314.717 303.527 314.717C303.527 314.717 300.742 312.088 298.566 314.454C296.477 316.908 300.655 322.254 306.487 322.166Z" fill="#00B47E"/>
<path d="M211.695 271.511C215.177 269.058 216.221 264.325 213.871 263.536C211.608 262.748 210.65 265.64 210.65 265.64C210.65 265.64 208.996 263.274 207.081 264.676C205.166 266.078 207.43 270.635 211.695 271.511Z" fill="#00B47E"/>
<path d="M229.31 266.476C232.792 264.022 233.837 259.29 231.486 258.501C229.223 257.712 228.266 260.604 228.266 260.604C228.266 260.604 226.612 258.238 224.697 259.64C222.695 261.043 224.958 265.6 229.31 266.476Z" fill="#008D63"/>
<path d="M285.77 319.8C289.165 317.259 290.123 312.526 287.685 311.825C285.422 311.124 284.552 314.016 284.552 314.016C284.552 314.016 282.811 311.65 280.983 313.14C279.068 314.542 281.418 319.099 285.77 319.8Z" fill="#00B47E"/>
<path d="M340.087 283.693C343.482 280.976 344.352 276.069 341.828 275.455C339.478 274.842 338.694 277.734 338.694 277.734C338.694 277.734 336.866 275.368 334.951 276.945C333.123 278.523 335.648 283.08 340.087 283.693Z" fill="#008D63"/>
<path d="M172.283 261.43C175.677 258.713 176.548 253.805 174.024 253.192C171.673 252.578 170.89 255.47 170.89 255.47C170.89 255.47 169.062 253.104 167.147 254.681C165.232 256.259 167.843 260.729 172.283 261.43Z" fill="#008D63"/>
<path d="M207.604 233.915C210.999 231.198 211.869 226.29 209.345 225.677C206.995 225.064 206.211 227.956 206.211 227.956C206.211 227.956 204.383 225.589 202.468 227.167C200.64 228.744 203.165 233.301 207.604 233.915Z" fill="#008D63"/>
<path d="M196.549 235.142C198.377 234.879 199.77 233.214 198.986 232.425C198.203 231.636 197.333 232.6 197.333 232.6C197.333 232.6 197.159 231.286 196.114 231.461C195.069 231.636 195.069 233.915 196.549 235.142Z" fill="#00B47E"/>
<path d="M197.855 243.029C199.508 243.906 201.598 243.292 201.423 242.241C201.249 241.189 199.944 241.364 199.944 241.364C199.944 241.364 200.553 240.225 199.596 239.787C198.638 239.349 197.332 241.189 197.855 243.029Z" fill="#00DE9B"/>
<path d="M185.582 240.401C187.41 240.138 188.802 238.473 188.019 237.684C187.235 236.895 186.365 237.859 186.365 237.859C186.365 237.859 186.191 236.545 185.146 236.72C184.102 236.895 184.015 239.174 185.582 240.401Z" fill="#008D63"/>
<path d="M363.154 248.814C367.767 246.973 370.205 241.803 367.68 240.313C365.33 238.823 363.502 241.803 363.502 241.803C363.502 241.803 362.196 238.648 359.672 239.787C357.148 240.926 358.541 246.71 363.154 248.814Z" fill="#00B47E"/>
<path d="M204.035 255.912C206.037 254.159 206.385 251.179 204.905 250.829C203.425 250.478 203.077 252.319 203.077 252.319C203.077 252.319 201.859 250.916 200.814 251.968C199.683 252.932 201.336 255.649 204.035 255.912Z" fill="#00B47E"/>
<path d="M286.38 306.392C288.208 306.129 289.6 304.464 288.817 303.675C288.034 302.887 287.163 303.851 287.163 303.851C287.163 303.851 286.989 302.536 285.944 302.711C284.9 302.887 284.813 305.165 286.38 306.392Z" fill="#00B47E"/>
<path d="M381.085 234.003C382.913 233.74 384.305 232.075 383.522 231.286C382.738 230.497 381.868 231.461 381.868 231.461C381.868 231.461 381.694 230.147 380.649 230.322C379.605 230.585 379.518 232.864 381.085 234.003Z" fill="#008D63"/>
<path d="M198.725 267.48C200.553 266.867 201.598 265.027 200.64 264.413C199.77 263.8 198.986 264.851 198.986 264.851C198.986 264.851 198.638 263.624 197.594 263.975C196.636 264.325 196.984 266.604 198.725 267.48Z" fill="#008D63"/>
<path d="M253.39 243.555C251.214 241.101 251.214 237.333 253.129 237.157C254.957 236.982 255.218 239.261 255.218 239.261C255.218 239.261 256.872 237.771 258.09 239.173C259.309 240.575 256.785 243.643 253.39 243.555Z" fill="#00B47E"/>
<path d="M341.218 292.633C343.221 290.88 343.569 287.9 342.089 287.55C340.609 287.199 340.261 289.039 340.261 289.039C340.261 289.039 339.042 287.637 337.998 288.689C336.779 289.653 338.433 292.37 341.218 292.633Z" fill="#00B47E"/>
<path d="M252.171 230.147C253.999 229.534 255.044 227.693 254.086 227.08C253.216 226.466 252.432 227.518 252.432 227.518C252.432 227.518 252.084 226.291 251.04 226.642C250.082 226.992 250.43 229.183 252.171 230.147Z" fill="#008D63"/>
<path d="M192.284 286.235C193.676 285.008 193.937 282.905 192.893 282.642C191.848 282.379 191.587 283.694 191.587 283.694C191.587 283.694 190.717 282.73 189.933 283.431C189.15 284.132 190.369 286.06 192.284 286.235Z" fill="#008D63"/>
<path d="M296.738 309.546C303.092 308.407 307.619 302.535 304.833 299.906C302.222 297.365 299.088 300.695 299.088 300.695C299.088 300.695 298.305 296.313 294.736 297.014C291.167 297.803 291.341 305.515 296.738 309.546Z" fill="#00DE9B"/>
<path d="M246.6 258.278C249.995 255.737 250.953 251.004 248.515 250.303C246.252 249.602 245.382 252.494 245.382 252.494C245.382 252.494 243.641 250.128 241.813 251.618C239.985 253.02 242.335 257.577 246.6 258.278Z" fill="#00B47E"/>
<path d="M235.981 228.219C241.813 227.956 246.513 223.136 244.337 220.507C242.248 217.965 239.114 220.594 239.114 220.594C239.114 220.594 238.94 216.563 235.633 216.826C232.325 217.089 231.628 224.012 235.981 228.219Z" fill="#00B47E"/>
<path d="M161.905 184.838C154.245 184.838 147.891 178.966 150.589 175.285C153.201 171.78 157.466 175.022 157.466 175.022C157.466 175.022 157.466 169.764 161.731 169.939C166.083 170.115 167.389 179.141 161.905 184.838Z" fill="#00DE9B"/>
<path d="M173.047 165.733C170.087 166.171 167.215 164.155 168.085 162.578C168.869 161.088 170.784 162.139 170.784 162.139C170.784 162.139 170.522 160.036 172.176 159.861C173.83 159.686 174.875 163.191 173.047 165.733Z" fill="#00B47E"/>
<path d="M159.555 165.908C157.466 164.067 157.118 161 158.684 160.649C160.164 160.299 160.599 162.227 160.599 162.227C160.599 162.227 161.818 160.825 162.95 161.876C164.081 162.928 162.34 165.645 159.555 165.908Z" fill="#008D63"/>
<path d="M133.877 167.836C131.7 165.207 131.874 161.263 133.964 161.175C135.879 161.088 135.966 163.454 135.966 163.454C135.966 163.454 137.794 161.964 138.925 163.454C140.144 165.032 137.358 168.099 133.877 167.836Z" fill="#008D63"/>
<path d="M351.838 277.383C355.233 272.563 354.362 265.903 350.88 265.99C347.573 266.078 347.66 270.197 347.66 270.197C347.66 270.197 344.352 267.918 342.611 270.635C340.783 273.527 345.919 278.347 351.838 277.383Z" fill="#00B47E"/>
<path d="M349.923 246.535C353.753 243.205 354.449 237.509 351.49 236.895C348.704 236.282 347.921 239.787 347.921 239.787C347.921 239.787 345.658 237.158 343.569 239.086C341.48 240.927 344.7 246.097 349.923 246.535Z" fill="#00B47E"/>
<path d="M225.709 233.915C227.537 233.652 228.93 231.987 228.147 231.198C227.363 230.409 226.493 231.373 226.493 231.373C226.493 231.373 226.319 230.059 225.274 230.234C224.23 230.409 224.23 232.688 225.709 233.915Z" fill="#008D63"/>
<path d="M235.023 255.123C236.242 253.721 236.242 251.53 235.11 251.443C234.066 251.355 233.979 252.67 233.979 252.67C233.979 252.67 233.021 251.793 232.325 252.67C231.628 253.546 233.108 255.211 235.023 255.123Z" fill="#00B47E"/>
<path d="M368.376 235.317C373.686 231.286 375.079 223.749 371.336 222.697C367.767 221.646 366.374 226.115 366.374 226.115C366.374 226.115 363.676 222.434 360.716 224.801C357.757 227.167 361.587 234.178 368.376 235.317Z" fill="#00B47E"/>
<path d="M94.2711 100.18C98.1011 95.9733 98.1881 89.5757 94.8804 89.1375C91.7467 88.787 91.3115 92.7307 91.3115 92.7307C91.3115 92.7307 88.5261 90.1016 86.3499 92.4678C84.1738 94.9216 88.439 100.268 94.2711 100.18Z" fill="#00B47E"/>
<path d="M97.5722 131.645C101.837 131.996 105.58 129.016 104.275 126.913C102.969 124.897 100.532 126.474 100.532 126.474C100.532 126.474 100.793 123.582 98.3556 123.407C96.0054 123.232 94.8738 128.227 97.5722 131.645Z" fill="#00DE9B"/>
<path d="M123.344 126.646C127.609 126.996 131.352 124.017 130.047 121.913C128.741 119.898 126.304 121.475 126.304 121.475C126.304 121.475 126.565 118.583 124.128 118.408C121.777 118.233 120.559 123.228 123.344 126.646Z" fill="#00DE9B"/>
<path d="M112.289 134.971C116.555 135.322 120.298 132.342 118.992 130.239C117.686 128.223 115.249 129.8 115.249 129.8C115.249 129.8 115.51 126.908 113.073 126.733C110.723 126.558 109.591 131.553 112.289 134.971Z" fill="#00DE9B"/>
<path d="M71.858 120.971C75.2527 118.429 76.2102 113.697 73.773 112.996C71.5098 112.294 70.6393 115.187 70.6393 115.187C70.6393 115.187 68.8984 112.82 67.0705 114.31C65.1555 115.712 67.5927 120.27 71.858 120.971Z" fill="#00B47E"/>
<path d="M114.03 99.7414C116.294 98.9527 117.599 96.6741 116.468 95.7977C115.336 95.009 114.466 96.4112 114.466 96.4112C114.466 96.4112 113.943 94.8337 112.725 95.3595C111.419 95.7977 111.854 98.6021 114.03 99.7414Z" fill="#00B47E"/>
<path d="M88.5255 136.812C90.3535 136.549 91.7462 134.884 90.9628 134.096C90.1794 133.307 89.3089 134.271 89.3089 134.271C89.3089 134.271 89.1349 132.956 88.0903 133.132C87.0458 133.394 87.0458 135.585 88.5255 136.812Z" fill="#008D63"/>
<path d="M132.745 134.884C134.399 134.007 135.095 131.904 134.051 131.466C133.093 131.027 132.571 132.254 132.571 132.254C132.571 132.254 131.962 131.115 131.004 131.641C130.134 132.167 130.917 134.358 132.745 134.884Z" fill="#008D63"/>
<path d="M84.0865 86.2445C85.9144 85.9816 87.3072 84.3164 86.5238 83.5277C85.7404 82.739 84.8699 83.703 84.8699 83.703C84.8699 83.703 84.6958 82.3884 83.6513 82.5637C82.6067 82.739 82.5197 85.0175 84.0865 86.2445Z" fill="#00B47E"/>
<path d="M113.16 125.507C110.2 124.894 108.111 122.089 109.417 120.862C110.722 119.723 112.115 121.3 112.115 121.3C112.115 121.3 112.55 119.197 114.204 119.635C115.945 119.986 115.684 123.667 113.16 125.507Z" fill="#00B47E"/>
<path d="M50.7485 105.525C55.0137 105.7 58.6696 102.633 57.2769 100.529C55.9712 98.5135 53.4469 100.179 53.4469 100.179C53.4469 100.179 53.621 97.2866 51.1837 97.199C48.9206 97.199 47.876 102.194 50.7485 105.525Z" fill="#00B47E"/>
<path d="M61.0196 94.4825C62.8475 94.3073 64.3273 92.7298 63.6309 91.941C62.9346 91.1523 61.9771 92.0287 61.9771 92.0287C61.9771 92.0287 61.89 90.7141 60.8455 90.8894C59.8009 90.977 59.6269 93.168 61.0196 94.4825Z" fill="#00B47E"/>
<path d="M53.1855 91.5908C54.5782 90.3639 54.8393 88.2606 53.7948 87.9977C52.7503 87.7347 52.4891 89.0493 52.4891 89.0493C52.4891 89.0493 51.6187 88.0853 50.8353 88.7864C50.1389 89.5752 51.2705 91.4156 53.1855 91.5908Z" fill="#008D63"/>
<path d="M281.854 265.027C294.562 262.223 303.093 250.041 297.261 244.958C291.69 240.138 285.684 247.061 285.684 247.061C285.684 247.061 283.769 238.297 276.631 240.138C269.58 241.891 270.712 257.578 281.854 265.027Z" fill="#008D63"/>
<path d="M261.184 267.676C265.014 263.469 265.101 257.072 261.794 256.634C258.66 256.283 258.225 260.227 258.225 260.227C258.225 260.227 255.439 257.598 253.263 259.964C251.087 262.418 255.352 267.764 261.184 267.676Z" fill="#00B47E"/>
<path d="M311.71 238.998C305.878 238.735 301.177 233.915 303.353 231.286C305.442 228.744 308.576 231.374 308.576 231.374C308.576 231.374 308.75 227.342 312.058 227.605C315.366 227.78 316.062 234.791 311.71 238.998Z" fill="#00B47E"/>
<path d="M299.876 221.358C295.175 217.852 293.869 211.279 297.177 210.315C300.311 209.351 301.529 213.295 301.529 213.295C301.529 213.295 303.88 210.052 306.491 212.068C309.015 214.084 305.795 220.306 299.876 221.358Z" fill="#008D63"/>
<path d="M329.559 249.692C335.043 250.218 339.918 246.361 338.264 243.645C336.61 241.016 333.389 243.031 333.389 243.031C333.389 243.031 333.738 239.263 330.604 239.088C327.557 238.912 326.078 245.31 329.559 249.692Z" fill="#00B47E"/>
<path d="M268.188 241.276C269.667 240.049 269.928 237.946 268.884 237.683C267.839 237.42 267.578 238.735 267.578 238.735C267.578 238.735 266.795 237.771 266.011 238.472C265.141 239.173 266.273 241.101 268.188 241.276Z" fill="#00B47E"/>
<path d="M288.207 240.401C290.035 240.138 291.428 238.473 290.645 237.684C289.861 236.895 288.991 237.859 288.991 237.859C288.991 237.859 288.817 236.545 287.772 236.72C286.728 236.983 286.728 239.174 288.207 240.401Z" fill="#008D63"/>
<path d="M267.056 228.919C269.406 226.64 269.58 222.872 267.665 222.521C265.837 222.258 265.489 224.537 265.489 224.537C265.489 224.537 263.922 222.96 262.617 224.274C261.398 225.676 263.748 228.831 267.056 228.919Z" fill="#008D63"/>
<path d="M273.323 219.718C276.544 219.367 279.068 216.651 277.762 215.161C276.544 213.759 274.803 215.336 274.803 215.336C274.803 215.336 274.629 213.058 272.714 213.32C270.973 213.583 270.799 217.527 273.323 219.718Z" fill="#008D63"/>
<path d="M60.149 166.521C58.321 166.258 56.9283 164.593 57.7117 163.804C58.4951 163.016 59.3656 163.98 59.3656 163.98C59.3656 163.98 59.5397 162.665 60.5842 162.84C61.6288 163.016 61.6288 165.294 60.149 166.521Z" fill="#008D63"/>
<path d="M59.018 121.3C55.6232 120.862 53.0989 117.795 54.5787 116.392C55.9714 114.99 57.6253 116.655 57.6253 116.655C57.6253 116.655 57.9735 114.289 59.8885 114.64C61.7164 114.99 61.8034 119.109 59.018 121.3Z" fill="#00B47E"/>
<path d="M280.548 211.392C282.376 211.129 283.768 209.464 282.985 208.675C282.202 207.887 281.331 208.851 281.331 208.851C281.331 208.851 281.157 207.536 280.113 207.711C279.068 207.887 279.068 210.165 280.548 211.392Z" fill="#008D63"/>
<path d="M260.528 236.982C262.355 236.719 263.748 235.054 262.965 234.266C262.181 233.477 261.311 234.441 261.311 234.441C261.311 234.441 261.137 233.126 260.092 233.301C259.048 233.477 259.048 235.755 260.528 236.982Z" fill="#008D63"/>
<path d="M273.497 274.842C275.325 274.579 276.718 272.914 275.934 272.125C275.151 271.337 274.28 272.301 274.28 272.301C274.28 272.301 274.106 270.986 273.062 271.249C271.93 271.424 271.93 273.703 273.497 274.842Z" fill="#008D63"/>
<path d="M54.4911 144.788C52.0538 141.37 52.5761 136.55 55.1004 136.55C57.4506 136.55 57.4506 139.617 57.4506 139.617C57.4506 139.617 59.8009 137.952 61.1065 139.88C62.4993 141.808 58.8433 145.401 54.4911 144.788Z" fill="#00B47E"/>
<path d="M260.353 251.968C257.916 248.55 258.438 243.73 260.962 243.73C263.313 243.73 263.313 246.797 263.313 246.797C263.313 246.797 265.663 245.132 266.969 247.06C268.274 248.988 264.705 252.581 260.353 251.968Z" fill="#00B47E"/>
<path d="M263.661 190.446C265.924 191.147 268.362 190.008 267.926 188.693C267.491 187.466 265.924 187.992 265.924 187.992C265.924 187.992 266.36 186.414 265.141 186.064C263.748 185.713 262.53 188.255 263.661 190.446Z" fill="#00B47E"/>
<path d="M285.231 181.221C288.278 178.504 288.8 173.947 286.537 173.421C284.274 172.896 283.664 175.7 283.664 175.7C283.664 175.7 281.836 173.597 280.182 175.174C278.529 176.752 281.053 180.871 285.231 181.221Z" fill="#008D63"/>
<path d="M56.2322 130.853C54.4043 130.59 53.0116 128.924 53.795 128.136C54.5784 127.347 55.4488 128.311 55.4488 128.311C55.4488 128.311 55.6229 126.996 56.6675 127.259C57.7991 127.435 57.7991 129.713 56.2322 130.853Z" fill="#008D63"/>
<path d="M260.614 215.336C258.177 211.918 258.699 207.098 261.224 207.098C263.574 207.098 263.574 210.165 263.574 210.165C263.574 210.165 265.924 208.5 267.23 210.428C268.535 212.356 264.88 215.949 260.614 215.336Z" fill="#00B47E"/>
<path d="M263.922 201.401C262.094 201.138 260.702 199.473 261.485 198.685C262.269 197.896 263.139 198.86 263.139 198.86C263.139 198.86 263.313 197.545 264.358 197.808C265.489 197.983 265.489 200.262 263.922 201.401Z" fill="#008D63"/>
<path d="M72.6837 146.628C66.3294 145.489 61.8031 139.617 64.5885 136.988C67.1999 134.446 70.3335 137.777 70.3335 137.777C70.3335 137.777 71.1169 133.395 74.6858 134.096C78.2546 134.884 78.0805 142.684 72.6837 146.628Z" fill="#008D63"/>
<path d="M66.3293 131.29C70.5945 131.641 74.3374 128.661 73.0318 126.558C71.7261 124.542 69.2888 126.12 69.2888 126.12C69.2888 126.12 69.5499 123.227 67.1127 123.052C64.7625 122.965 63.6309 127.872 66.3293 131.29Z" fill="#00DE9B"/>
<path d="M51.0965 113.938C52.7504 113.062 53.4467 110.958 52.4022 110.52C51.4447 110.082 50.9224 111.309 50.9224 111.309C50.9224 111.309 50.3131 110.17 49.3556 110.695C48.4851 111.221 49.2686 113.325 51.0965 113.938Z" fill="#008D63"/>
<path d="M66.8515 181.858C63.8919 181.244 61.8028 178.44 63.1085 177.213C64.4142 176.074 65.8069 177.651 65.8069 177.651C65.8069 177.651 66.2421 175.548 67.896 175.986C69.6369 176.337 69.4628 180.017 66.8515 181.858Z" fill="#00B47E"/>
<path d="M272.365 201.751C270.015 199.736 269.667 196.23 271.408 195.879C273.062 195.529 273.584 197.632 273.584 197.632C273.584 197.632 274.977 196.055 276.195 197.194C277.501 198.333 275.586 201.401 272.365 201.751Z" fill="#00B47E"/>
<path d="M69.637 165.031C62.3252 162.752 57.8858 155.303 61.5417 152.586C65.0236 150.045 68.1572 154.339 68.1572 154.339C68.1572 154.339 69.637 149.344 73.7281 150.658C77.8192 152.148 76.5135 161.175 69.637 165.031Z" fill="#00DE9B"/>
<path d="M338.499 264.15C344.157 264.5 349.119 260.469 347.291 257.664C345.55 254.947 342.242 257.138 342.242 257.138C342.242 257.138 342.503 253.282 339.283 253.107C336.149 253.019 334.756 259.68 338.499 264.15Z" fill="#00DE9B"/>
<path d="M327.846 263.745C329.674 263.482 331.066 261.817 330.283 261.028C329.499 260.239 328.629 261.203 328.629 261.203C328.629 261.203 328.455 259.889 327.41 260.151C326.366 260.327 326.366 262.518 327.846 263.745Z" fill="#008D63"/>
<path d="M372.38 220.507C374.208 220.244 375.601 218.579 374.818 217.79C374.034 217.001 373.164 217.965 373.164 217.965C373.164 217.965 372.99 216.651 371.945 216.913C370.814 217.001 370.814 219.28 372.38 220.507Z" fill="#008D63"/>
<path d="M358.192 262.749C360.368 260.295 360.368 256.526 358.453 256.351C356.625 256.176 356.364 258.454 356.364 258.454C356.364 258.454 354.71 256.964 353.491 258.367C352.273 259.769 354.797 262.836 358.192 262.749Z" fill="#008D63"/>
<path d="M387.613 228.657C393.706 226.466 397.101 219.98 393.968 217.877C390.921 215.861 388.484 219.63 388.484 219.63C388.484 219.63 387.004 215.423 383.609 216.738C380.214 218.052 381.694 225.589 387.613 228.657Z" fill="#008D63"/>
<path d="M381.172 216.562C383.348 214.108 383.348 210.34 381.433 210.165C379.605 209.989 379.344 212.268 379.344 212.268C379.344 212.268 377.69 210.778 376.472 212.18C375.34 213.583 377.777 216.65 381.172 216.562Z" fill="#00B47E"/>
<path d="M185.722 263.085C192.076 261.946 196.602 256.074 193.817 253.445C191.205 250.904 188.072 254.234 188.072 254.234C188.072 254.234 187.288 249.852 183.72 250.553C180.151 251.342 180.325 259.142 185.722 263.085Z" fill="#008D63"/>
<path d="M222.227 284.395C226.319 279.399 226.057 272.038 222.227 271.775C218.571 271.599 218.31 276.157 218.31 276.157C218.31 276.157 214.916 273.352 212.652 276.157C210.476 279.049 215.612 284.833 222.227 284.395Z" fill="#008D63"/>
<path d="M317.368 304.552C311.71 303.412 307.706 298.066 310.317 295.788C312.754 293.597 315.453 296.576 315.453 296.576C315.453 296.576 316.236 292.633 319.37 293.421C322.591 294.123 322.242 301.046 317.368 304.552Z" fill="#008D63"/>
<path d="M49 445.879H61.2862V413.68L81.9653 445.879H94.2515V393.224H81.9653V425.423L61.2862 393.224H49V445.879Z" fill="#00CC8F"/>
<path d="M110.204 406.308C112.076 406.308 113.672 405.638 114.991 404.298C116.331 402.957 117.001 401.351 117.001 399.479C117.001 397.607 116.331 396.011 114.991 394.692C113.672 393.352 112.076 392.682 110.204 392.682C108.332 392.682 106.726 393.352 105.385 394.692C104.066 396.011 103.407 397.607 103.407 399.479C103.407 401.351 104.066 402.957 105.385 404.298C106.726 405.638 108.332 406.308 110.204 406.308ZM104.396 445.879H116.044V413.201H104.396V445.879Z" fill="#00CC8F"/>
<path d="M124.857 445.879H136.505V433.88L149.079 445.879H164.013L146.94 429.476L163.311 413.201H148.249L136.505 424.626V390.99H124.857V445.879Z" fill="#00CC8F"/>
<path d="M178.452 446.9C182.431 446.9 185.973 445.432 189.079 442.496V445.879H200.727V413.201H189.079V416.201C187.781 414.946 186.207 413.967 184.356 413.265C182.505 412.542 180.537 412.18 178.452 412.18C175.304 412.18 172.506 412.946 170.059 414.478C167.634 415.988 165.73 418.052 164.347 420.669C162.964 423.285 162.273 426.221 162.273 429.476C162.273 432.838 162.996 435.837 164.443 438.476C165.889 441.092 167.836 443.156 170.283 444.667C172.729 446.156 175.452 446.9 178.452 446.9ZM181.963 437.04C179.835 437.04 178.069 436.337 176.665 434.933C175.261 433.508 174.559 431.71 174.559 429.54C174.559 427.391 175.261 425.604 176.665 424.179C178.069 422.753 179.835 422.041 181.963 422.041C184.111 422.041 185.867 422.753 187.228 424.179C188.611 425.583 189.302 427.37 189.302 429.54C189.302 431.71 188.611 433.508 187.228 434.933C185.867 436.337 184.111 437.04 181.963 437.04Z" fill="#00CC8F"/>
<path d="M209.534 445.879H221.182V427.242C221.182 425.477 221.735 424.03 222.842 422.902C223.969 421.775 225.469 421.211 227.341 421.211C229.192 421.211 230.66 421.785 231.745 422.934C232.83 424.083 233.373 425.636 233.373 427.594V445.879H245.021V425.104C245.021 422.594 244.457 420.371 243.329 418.435C242.223 416.477 240.691 414.946 238.734 413.839C236.798 412.733 234.585 412.18 232.096 412.18C230.011 412.18 228.011 412.574 226.097 413.361C224.203 414.148 222.565 415.201 221.182 416.52V390.99H209.534V445.879Z" fill="#00CC8F"/>
<path d="M276.153 445.879H288.471V404.042H300.821V393.224H263.803V404.042H276.153V445.879Z" fill="#00CC8F"/>
<path d="M312.36 406.308C314.232 406.308 315.828 405.638 317.147 404.298C318.487 402.957 319.158 401.351 319.158 399.479C319.158 397.607 318.487 396.011 317.147 394.692C315.828 393.352 314.232 392.682 312.36 392.682C310.488 392.682 308.882 393.352 307.541 394.692C306.222 396.011 305.563 397.607 305.563 399.479C305.563 401.351 306.222 402.957 307.541 404.298C308.882 405.638 310.488 406.308 312.36 406.308ZM306.552 445.879H318.2V413.201H306.552V445.879Z" fill="#00CC8F"/>
<path d="M327.013 445.879H338.661V426.828C338.661 425.232 339.151 423.934 340.129 422.934C341.129 421.934 342.438 421.434 344.054 421.434C345.693 421.434 346.959 421.966 347.852 423.03C348.767 424.073 349.224 425.455 349.224 427.179V445.879H360.872V426.54C360.872 425.051 361.362 423.828 362.34 422.87C363.319 421.913 364.617 421.434 366.233 421.434C367.829 421.434 369.095 421.956 370.031 422.998C370.988 424.041 371.467 425.466 371.467 427.274V445.879H383.115V424.115C383.115 421.711 382.583 419.615 381.519 417.828C380.456 416.041 378.998 414.658 377.147 413.68C375.318 412.68 373.212 412.18 370.829 412.18C368.616 412.18 366.606 412.669 364.797 413.648C363.01 414.627 361.266 416.126 359.564 418.147C358.649 416.339 357.17 414.892 355.128 413.807C353.107 412.722 350.873 412.18 348.426 412.18C346.703 412.18 345.076 412.52 343.544 413.201C342.033 413.882 340.406 414.988 338.661 416.52V413.201H327.013V445.879Z" fill="#00CC8F"/>
<path d="M407.214 446.9C410.725 446.9 413.905 446.145 416.756 444.635C419.628 443.103 421.83 441.007 423.362 438.348L415.001 434.167C413.831 435.444 412.703 436.348 411.618 436.88C410.554 437.412 409.31 437.678 407.884 437.678C405.565 437.678 403.725 437.093 402.364 435.923C401.023 434.731 400.353 433.136 400.353 431.136H423.872C423.936 430.434 423.968 429.966 423.968 429.732C423.989 429.498 424 429.242 424 428.966C424 425.647 423.277 422.732 421.83 420.222C420.383 417.69 418.373 415.722 415.799 414.318C413.246 412.893 410.267 412.18 406.863 412.18C403.395 412.18 400.257 412.946 397.449 414.478C394.662 416.009 392.45 418.084 390.811 420.7C389.173 423.317 388.354 426.253 388.354 429.508C388.354 432.806 389.184 435.774 390.843 438.412C392.503 441.029 394.747 443.103 397.577 444.635C400.428 446.145 403.64 446.9 407.214 446.9ZM400.704 425.264C400.81 423.732 401.385 422.541 402.427 421.69C403.47 420.817 404.863 420.381 406.608 420.381C410.054 420.381 412.044 422.009 412.575 425.264H400.704Z" fill="#00CC8F"/>
</svg>
